<svg width="24" height="13" viewBox="0 0 24 13" fill="none" xmlns="http://www.w3.org/2000/svg">
<path d="M0.18057 5.95494C-0.716603 5.95494 1.97492 5.95494 2.87209 5.95494C3.60047 5.95494 4.66194 5.75719 5.32653 6.05256C5.78277 6.25534 6.77803 6.33148 7.27195 6.33148C8.15285 6.33148 9.03376 6.33148 9.91466 6.33148C13.8659 6.33148 17.8172 6.33148 21.7685 6.33148" stroke="#171717" stroke-width="2" stroke-linecap="round"/>
<path d="M22.145 6.33151C21.9357 6.30535 21.4574 5.4498 21.3292 5.26466C20.8956 4.63831 20.3884 3.898 19.858 3.34713C19.3851 2.85605 18.826 2.49444 18.2542 2.12688C17.9103 1.9058 17.4379 1.888 17.1525 1.6597C16.9198 1.47356 16.5912 1.21744 16.3157 1.06004C15.8209 0.777282 15.9398 1.56458 16.0229 1.93862C16.4154 3.70483 16.4534 5.57039 16.8457 7.3356C16.966 7.87693 16.9991 8.41268 16.9991 8.96724C16.9991 9.26495 17.0544 10.0404 17.2222 10.2502C17.3402 10.3977 17.1304 11.4635 17.3198 11.4635C17.6338 11.4635 18.3266 10.7775 18.5331 10.571C19.7701 9.33402 21.3265 8.07405 22.0195 6.45702" stroke="#171717" stroke-width="2" stroke-linecap="round"/>
</svg>
