<svg width="39" height="38" viewBox="0 0 39 38" fill="none" xmlns="http://www.w3.org/2000/svg">
<path d="M8.4917 4.41709C9.30688 4.41709 10.142 4.06079 10.7917 3.55552C11.3552 3.11721 12.0158 2.98224 12.6316 2.70855C13.8643 2.16068 15.4319 1.60013 16.7716 1.52571C17.4444 1.48833 18.1155 1.26285 18.8087 1.26285C19.5315 1.26285 20.2544 1.26285 20.9772 1.26285C21.699 1.26285 22.3394 1 23.0801 1C23.7697 1 24.4121 1.57544 25.0514 1.78856" stroke="#F7F7F7" stroke-width="2" stroke-linecap="round"/>
<path d="M25.0515 1.78856C27.5237 1.78856 29.3097 3.28679 30.9657 4.9428C31.4583 5.43538 32.0458 5.90906 32.4698 6.4542C32.7904 6.86642 33.3321 7.18551 33.5942 7.64434C33.9216 8.21728 34.4522 8.92967 34.9085 9.4113C35.278 9.80136 36.0913 10.6967 36.0913 11.2513" stroke="#F7F7F7" stroke-width="2" stroke-linecap="round"/>
<path d="M36.0913 11.2513C36.0913 12.2685 36.0048 13.2404 36.3542 14.2011C36.6413 14.9907 36.9687 15.7581 37.15 16.5741C37.334 17.4021 37.4056 18.1258 37.4056 19.0054C37.4056 19.7794 37.5645 20.7836 37.2449 21.5025C36.9596 22.1445 36.8799 23.2333 36.8799 23.9339C36.8799 24.5949 36.504 25.6667 36.2227 26.2996C35.8208 27.2041 35.7391 28.3387 35.0399 29.1253C34.5069 29.725 34.3138 30.6744 33.8571 31.3595" stroke="#F7F7F7" stroke-width="2" stroke-linecap="round"/>
<path d="M33.857 31.3595C33.8272 31.5982 33.0744 32.2736 32.8713 32.4767C32.5836 32.7644 32.4071 33.1454 32.1193 33.4332C31.5377 34.0147 30.7775 34.5129 30.0457 34.8789C29.2924 35.2555 28.2348 35.8943 27.3879 35.9595C26.9574 35.9926 26.4619 36.1511 26.0299 36.2296C25.5206 36.3222 24.9584 36.2503 24.46 36.3611C23.6566 36.5396 22.8043 36.4852 21.9629 36.4852C21.0659 36.4852 20.1296 36.6166 19.203 36.6166C17.2535 36.6166 15.304 36.6166 13.3545 36.6166" stroke="#F7F7F7" stroke-width="2" stroke-linecap="round"/>
<path d="M13.3545 36.6166C12.4754 36.6166 11.8736 35.6584 11.0619 35.4265C10.3451 35.2217 9.59155 34.4308 9.08316 33.9224C8.46508 33.3043 7.76417 32.7693 7.17748 32.1481C6.57386 31.509 6.01291 30.8605 5.36671 30.2789C4.2404 29.2652 3.20985 27.8537 2.57755 26.431C2.15902 25.4894 1.98175 24.5211 1.49693 23.6054C1.11745 22.8886 1.00043 22.1623 1.00043 21.3711" stroke="#F7F7F7" stroke-width="2" stroke-linecap="round"/>
<path d="M1.00039 21.3711C1.00039 17.9194 0.931129 14.3988 2.64322 11.317C3.42359 9.91233 4.23816 8.14492 5.40318 6.97991C5.96752 6.41557 6.59613 5.71098 7.25045 5.33708C7.90116 4.96525 8.70677 4.79942 9.28026 4.41709" stroke="#F7F7F7" stroke-width="2" stroke-linecap="round"/>
<path d="M13.5893 16.0137C13.0571 16.0137 13.0757 14.5585 13.4111 14.2976C14.1525 13.721 14.571 14.3207 14.652 15.0501C14.6967 15.4526 13.7214 16.2 13.4969 15.7761C13.4152 15.6218 13.4075 14.7503 13.5365 14.7134C13.9107 14.6065 13.9458 15.0405 13.9458 15.3009" stroke="#F7F7F7" stroke-width="2" stroke-linecap="round"/>
<path d="M26.658 15.8949C26.0145 15.8949 26.2086 14.536 26.8296 14.7134C27.1854 14.8151 27.015 15.4 26.8032 15.5385C26.3794 15.8156 25.9064 15.8949 25.4105 15.8949C24.7282 15.8949 25.2284 14.1814 26.1828 14.2316C26.5275 14.2498 26.658 14.7291 26.658 15.0039C26.658 15.2514 26.3554 14.68 26.5392 14.588" stroke="#F7F7F7" stroke-width="2" stroke-linecap="round"/>
<path d="M19.9273 15.7643C19.9273 16.2848 19.8013 16.7075 19.3036 16.984C18.8517 17.2351 18.5995 17.5283 19.0541 18.0097C19.3663 18.3402 19.5419 18.9886 19.9273 19.2295C20.1764 19.3851 20.133 19.7343 20.4263 19.8809" stroke="#F7F7F7" stroke-width="2" stroke-linecap="round"/>
<path d="M10.4466 30.6091C10.4466 30.2557 10.4466 29.9022 10.4466 29.5488C10.4466 29.0871 10.8946 28.8223 10.9456 28.3637C11.0387 27.5258 12.1274 26.8896 12.4425 26.1806C13.2325 24.4032 15.8755 24.2564 17.4324 23.9005C17.9999 23.7708 18.9004 23.7481 19.4907 23.7481C20.0428 23.7481 20.5949 23.7481 21.1471 23.7481C22.4413 23.7481 23.6758 24.5065 24.8063 25.0718C26.0595 25.6984 27.1179 26.7111 28.0913 27.6845C28.5456 28.1388 29.408 29.0703 29.408 29.7359" stroke="#F7F7F7" stroke-width="2" stroke-linecap="round"/>
</svg>
