<svg width="25" height="29" viewBox="0 0 25 29" fill="none" xmlns="http://www.w3.org/2000/svg">
<path d="M5.01681 1.14346C3.9844 1.14346 1.95982 0.738084 1.39849 1.86074C1.01939 2.61896 1.28691 4.00168 1.28691 4.84147C1.28691 6.00241 1.28691 7.16335 1.28691 8.32429C1.28691 11.4936 1 14.6377 1 17.8164C1 18.7993 1 19.7823 1 20.7652C1 21.5833 1.28691 22.3489 1.28691 23.1642C1.28691 23.7499 1.42166 24.4606 1.5818 25.0211C1.81911 25.8517 2.10671 26.1623 2.86495 26.5035C3.69673 26.8778 5.13048 26.8223 6.02101 26.8223C6.94873 26.8223 7.82396 26.9658 8.73873 26.9658C12.3825 26.9658 16.052 27.1092 19.7212 27.1092C21.2628 27.1092 22.37 26.3542 22.8055 24.8299C23.2653 23.2206 23.603 21.4693 23.6663 19.761C23.74 17.769 23.7656 15.7458 23.2996 13.8155C23.0879 12.9381 22.8895 12.0655 22.6939 11.1855C22.5835 10.6884 22.3751 10.0519 22.3751 9.54368C22.3751 9.24217 22.2496 8.92576 22.2317 8.60324C22.2061 8.14179 21.5947 8.05652 21.4028 7.7425C20.8468 6.83266 19.8371 6.16447 19.2191 5.27184C18.5342 4.28254 17.6314 3.29331 16.8441 2.36284C16.4648 1.91458 15.6039 1 14.9871 1C14.2342 1 13.5146 1.11579 12.7954 1.14346C12.179 1.16716 11.254 1.36107 10.6435 1.54195C9.94653 1.74847 9.05043 1.71729 8.31632 1.71729C6.92957 1.71729 5.54282 1.71729 4.15606 1.71729" stroke="#171717" stroke-width="2" stroke-linecap="round"/>
<path d="M13.9111 1.43036C13.9111 3.15185 13.9111 4.87334 13.9111 6.59482C13.9111 7.49848 13.3888 9.89434 14.7161 9.89434C16.9662 9.89434 19.1917 9.99909 21.2275 9.32051" stroke="#171717" stroke-width="2" stroke-linecap="round"/>
<path d="M15.6326 2.43457C15.6326 4.68187 15.543 6.96246 15.7761 9.17707C15.905 10.4013 15.9196 8.55724 15.9196 8.21271C15.9196 6.98536 15.9196 5.758 15.9196 4.53064C15.9196 4.23339 16.1542 5.08798 16.3499 5.31169C16.7507 5.76966 17.0059 6.4241 17.2904 6.96145C17.7417 7.81393 17.6988 6.46215 17.6331 6.1007C17.5612 5.70517 17.7842 6.30724 17.8562 6.45138C18.0854 6.90973 18.3075 7.33071 18.6134 7.74249C18.8134 8.01178 19.0122 8.2729 19.2191 8.53151C19.3928 8.7487 18.9787 8.26327 18.9322 8.17286C18.336 7.0136 17.651 5.87658 17.1788 4.72989C16.7388 3.6613 18.8603 6.32819 19.5697 7.24039C19.6443 7.33627 20.2069 7.98512 20.1914 7.99753C19.9926 8.15657 19.1197 8.09988 18.8525 8.14098C18.5013 8.19501 18.139 8.17286 17.7845 8.17286C17.471 8.17286 16.508 7.99835 17.1788 8.20474C17.6071 8.33653 18.2031 8.45978 18.6452 8.45978" stroke="#171717" stroke-width="2" stroke-linecap="round"/>
</svg>
