<svg width="38" height="28" viewBox="0 0 38 28" fill="none" xmlns="http://www.w3.org/2000/svg">
<path d="M12.1316 12.0618C11.8227 12.0618 11.7946 11.2528 11.9796 11.0677C12.3795 10.6678 12.9579 10.9582 13.1373 11.4069C13.5256 12.3775 12.6669 12.707 11.81 12.7927C10.8978 12.8839 10.7498 11.7256 10.9973 11.0327C11.1302 10.6604 11.9915 10.4388 12.3421 10.4889C12.6264 10.5295 12.8757 11.0034 12.6345 11.1964C12.341 11.4312 11.9821 11.3456 11.8685 11.0502C11.6112 10.3813 12.5009 10.2018 12.8684 9.95679" stroke="#171717" stroke-width="2" stroke-linecap="round"/>
<path d="M18.5518 11.8513C18.0147 11.8513 17.8151 11.712 17.8151 11.1145C17.8151 10.2909 17.9497 9.69981 18.7623 9.38379C20.2435 8.80778 20.2464 10.9014 19.3119 11.5355C19.1134 11.6703 18.2432 12.2398 18.0489 11.8513C17.7803 11.314 18.3742 10.7542 18.8675 10.6994C19.3576 10.6449 19.7262 10.6183 19.9727 11.0619C20.2086 11.4867 19.856 11.6746 19.499 11.746" stroke="#171717" stroke-width="2" stroke-linecap="round"/>
<path d="M27.2874 11.8513C27.056 11.8513 26.8038 11.8788 26.5741 11.8513C26.3502 11.8244 26.4455 11.1261 26.4455 10.9567C26.4455 10.5764 26.6942 9.86105 27.1822 10.3778C27.7944 11.026 27.3242 12.0515 26.6559 12.3249C25.9825 12.6004 24.9617 12.9057 24.7849 11.9331C24.4323 9.99429 27.5823 9.38501 27.4979 10.904C27.4851 11.1357 27.2534 11.1249 27.0769 11.1145C26.8919 11.1036 26.9717 10.6765 26.9717 10.5357C26.9717 9.95542 27.6925 10.0381 27.9189 10.3778" stroke="#171717" stroke-width="2" stroke-linecap="round"/>
<path d="M6.29134 20.1449C5.6967 20.1449 5.1029 20.2218 4.5584 19.9798C3.68891 19.5934 3.0565 18.1655 2.58707 17.44C1.21287 15.3163 0.940108 13.092 1.01 10.6458C1.03475 9.77964 1.93145 8.37956 2.41286 7.6842C2.99756 6.83963 3.85523 6.12818 4.39336 5.29109C4.99999 4.34744 6.51024 3.54761 7.53832 3.13638C8.53655 2.73709 9.52359 2.25267 10.5733 1.99025C13.0043 1.3825 15.6564 1.2313 18.1744 1.16504C19.7095 1.12464 21.2437 1 22.7955 1C24.1197 1 25.292 1.17796 26.5823 1.33925C28.5009 1.57907 30.6659 2.73783 32.2396 3.80571C34.3587 5.24369 35.6545 7.48876 36.2923 9.91226C36.5224 10.7866 36.8241 11.8923 36.8241 12.7913C36.8241 13.6745 36.6207 14.1347 36.329 14.9369C35.7075 16.646 33.713 17.868 32.3313 18.8245C31.3644 19.4939 30.0561 19.9159 28.9113 20.1449C27.5071 20.4257 25.9637 20.805 24.5285 20.805C23.1287 20.805 21.7289 20.805 20.3291 20.805C19.4088 20.805 18.5244 20.4749 17.5967 20.4749C16.8738 20.4749 15.8495 21.9316 15.2036 22.2904C14.6837 22.5793 14.2118 22.8808 13.7182 23.1981C13.3505 23.4345 12.5155 23.6129 12.2695 23.9408C12.0169 24.2777 10.7525 24.8291 10.3349 24.9219C9.70343 25.0622 8.92401 25.3573 8.35437 25.6738C8.0324 25.8526 6.95474 26.2514 6.62142 26.2514C6.22301 26.2514 6.75747 24.6943 6.82314 24.4726C7.2533 23.0209 7.44663 21.6718 7.44663 20.1449" stroke="#171717" stroke-width="2" stroke-linecap="round"/>
</svg>
