<svg width="18" height="22" viewBox="0 0 18 22" fill="none" xmlns="http://www.w3.org/2000/svg">
<path d="M1.38477 3.91425C3.95651 3.91425 6.52824 3.91425 9.09998 3.91425C10.5172 3.91425 11.9098 4.07152 13.3377 4.07152C14.4124 4.07152 15.4871 4.07152 16.5618 4.07152" stroke="#171717" stroke-width="2" stroke-linecap="round"/>
<path d="M5.86714 3.36373C5.86714 3.23133 5.73622 3.07611 5.82783 2.96618C5.92683 2.84737 5.98792 2.67452 6.06374 2.53804C6.20579 2.28235 6.25278 2.11157 6.47877 1.93078C6.69433 1.75833 7.38097 1.86962 7.66707 1.86962C8.10249 1.86962 8.53791 1.86962 8.97333 1.86962C9.64326 1.86962 10.2767 1.94826 10.9393 1.94826C11.0321 1.94826 11.6826 2.04176 11.6863 2.10553C11.7042 2.40983 11.8711 2.71106 12.0009 2.97054" stroke="#171717" stroke-width="2" stroke-linecap="round"/>
<path d="M2.48572 5.48695C2.48572 6.36556 2.56436 7.24994 2.56436 8.12131C2.56436 8.5029 2.72163 8.87434 2.72163 9.26155C2.72163 9.74431 2.78034 10.3179 2.83959 10.8037C3.03289 12.3888 2.95754 14.0123 2.95754 15.6094C2.95754 16.643 3.03618 17.6724 3.03618 18.6937C3.03618 19.3008 3.05716 19.5051 3.49053 19.8951C3.95825 20.316 4.93023 20.2708 5.51763 20.2708C6.39395 20.2708 7.26287 20.1922 8.13015 20.1922C9.05787 20.1922 9.98116 19.9563 10.8999 19.9563C11.8926 19.9563 12.8744 19.799 13.8751 19.799C14.4954 19.799 15.1158 19.799 15.7361 19.799C16.158 19.799 16.1687 18.676 16.1687 18.3442C16.1687 17.2628 16.2473 16.1913 16.2473 15.1157C16.2473 14.1089 16.4832 13.128 16.4832 12.11C16.4832 11.2734 16.5618 10.423 16.5618 9.5761C16.5618 8.4684 16.4529 7.24718 16.2298 6.15974C16.1086 5.5687 16.0311 4.97603 15.7755 4.46466" stroke="#171717" stroke-width="2" stroke-linecap="round"/>
<path d="M6.8894 7.05969C6.8894 9.28776 6.8894 11.5158 6.8894 13.7439C6.8894 14.3977 7.13398 15.0001 7.30007 15.6312C7.39381 15.9874 7.67578 16.3669 7.67578 16.7321" stroke="#171717" stroke-width="2" stroke-linecap="round"/>
<path d="M11.2932 7.21698C11.2932 9.49747 11.2932 11.778 11.2932 14.0584C11.2932 14.79 11.6077 15.4795 11.6077 16.1817" stroke="#171717" stroke-width="2" stroke-linecap="round"/>
</svg>
