<svg width="24" height="23" viewBox="0 0 24 23" fill="none" xmlns="http://www.w3.org/2000/svg">
<path d="M19.3127 1.37811C19.3127 2.62063 18.0771 3.76008 17.3486 4.64475C16.5411 5.62526 15.887 6.70249 15.0955 7.66981C14.4289 8.48454 13.8667 9.38625 13.2206 10.2169C12.9447 10.5717 12.7787 11.0956 12.5799 11.4931C12.4337 11.7855 12.2356 12.0219 12.1282 12.3439" stroke="#171717" stroke-width="2" stroke-linecap="round"/>
<path d="M19.6909 1C20.062 1 20.4331 1 20.8043 1C21.3156 1 21.649 1.31006 22.0962 1.47266C22.9229 1.77329 22.8034 2.47417 22.4533 3.17426C22.1131 3.85468 21.6014 4.57869 21.1036 5.15945C20.8425 5.46407 20.5899 6.01291 20.2581 6.22032C20.0639 6.34166 19.6913 6.88374 19.5963 7.09738C19.2889 7.78906 18.6234 8.3665 18.2519 9.0353C17.936 9.6039 17.4004 10.0828 17.0019 10.5951C16.5661 11.1554 16.0415 11.6513 15.626 12.2284C15.3967 12.5468 15.0276 12.8867 14.8697 13.242C14.7922 13.4163 14.5427 13.8782 14.397 13.951" stroke="#171717" stroke-width="2" stroke-linecap="round"/>
<path d="M9.06454 17.4254C9.28395 17.4528 9.77165 18.8273 9.82361 19.0611C9.93769 19.5745 10.4185 20.0287 9.8343 20.2692C8.98618 20.6184 8.2003 18.58 9.44942 18.58" stroke="#171717" stroke-width="2" stroke-linecap="round"/>
<path d="M5.57666 20.834C5.61803 21.1649 7.53372 19.5369 7.74049 19.1647C7.9808 18.7322 8.12599 18.3128 8.32438 17.8664C8.52223 17.4213 8.88809 16.7458 8.91514 16.259C8.9438 15.7431 9.18064 15.2188 9.29295 14.7134C9.37606 14.3395 9.66776 13.4066 9.96614 13.1678C10.6741 12.6015 11.9102 12.221 12.8993 12.5771C13.2539 12.7047 13.9154 13.3936 14.1083 13.7311C14.371 14.1909 14.7266 14.7881 14.7266 15.3248C14.7266 16.6572 14.7574 17.657 13.7374 18.677C12.738 19.6764 11.061 20.4052 9.71885 20.7035C8.5228 20.9693 7.42609 21.2049 6.1949 21.2049" stroke="#171717" stroke-width="2" stroke-linecap="round"/>
<path d="M1 12.7931C2.23574 12.1752 3.64855 12.2809 4.99523 12.2809C5.61914 12.2809 6.38335 12.1511 6.99285 12.2866C7.97043 12.5038 5.44353 14.6066 5.20012 14.8192C4.51816 15.4147 3.24735 15.9188 2.79273 16.7371C2.66957 16.9588 2.59805 16.9392 2.86672 17.016C3.39405 17.1666 3.99343 17.2381 4.53994 17.3005C4.93815 17.346 5.31443 17.3809 5.71233 17.403C5.98758 17.4183 5.58067 18.0265 5.50744 18.1428C5.16026 18.6942 4.90066 19.2353 4.63669 19.816C4.53538 20.0389 4.58546 20.3382 4.58546 20.5787C4.58546 20.8769 4.8606 20.7835 5.09767 20.7835" stroke="#171717" stroke-width="2" stroke-linecap="round"/>
</svg>
