<svg width="15" height="14" viewBox="0 0 15 14" fill="none" xmlns="http://www.w3.org/2000/svg">
<path d="M1.01283 10.2684C1.01283 10.8449 1.01283 11.4214 1.01283 11.9979C1.01283 12.4689 0.877072 12.8562 1.48867 12.675C1.75106 12.5973 3.31468 12.4014 3.40117 12.5743" stroke="#171717" stroke-width="2" stroke-linecap="round"/>
<path d="M1.25989 9.69189C1.28502 9.49086 1.59094 9.301 1.71285 9.152C1.92385 8.8941 2.09753 8.62012 2.33052 8.37419C2.71959 7.96351 3.03016 7.33646 3.52011 7.05649C3.85572 6.86471 4.17544 6.44691 4.45348 6.16887C4.75876 5.86359 5.12374 5.65417 5.41431 5.36361C5.69157 5.08635 6.01206 4.76412 6.36598 4.5675C6.67885 4.39368 6.87575 4.02248 7.22615 3.92237C7.70197 3.78642 7.78065 3.77869 8.24188 4.09166C8.71321 4.41149 9.1744 4.77069 9.61906 5.11654C9.82472 5.2765 10.2367 5.56843 10.2367 5.86232C10.2367 6.1856 9.50574 6.60243 9.24845 6.74536C8.55878 7.12852 8.00858 7.83883 7.45492 8.39249C6.79942 9.04799 6.21477 9.7615 5.54242 10.3965C5.19771 10.7221 4.85477 11.0384 4.51296 11.3802C4.22045 11.6727 3.65948 12.1401 3.48351 12.492" stroke="#171717" stroke-width="2" stroke-linecap="round"/>
<path d="M10.3021 1C10.1117 1 9.92135 1 9.73097 1C9.4995 1 9.31824 1.14672 9.1325 1.24803C8.93972 1.35319 8.81615 1.56892 8.64099 1.69631C8.44099 1.84176 8.60616 1.83001 8.76614 1.90111C8.97183 1.99253 9.23246 2.16316 9.40102 2.31299C9.66457 2.54726 9.96483 2.73204 10.2248 2.96834C10.549 3.26312 10.8352 3.58101 11.1418 3.88766C11.4612 4.20701 11.5281 4.26501 11.9405 3.99006C12.1996 3.81736 12.4426 3.61204 12.7188 3.46668C12.855 3.39497 12.939 3.33891 13.0055 3.19362C13.51 2.09004 11.6646 1.52599 10.9984 1.08192" stroke="#171717" stroke-width="2" stroke-linecap="round"/>
</svg>
