<svg width="38" height="38" viewBox="0 0 38 38" fill="none" xmlns="http://www.w3.org/2000/svg">
<path d="M5.3609 6.05821C5.83594 6.00543 6.45238 5.33743 6.7839 5.00591C7.25597 4.53384 7.85731 4.02013 8.43409 3.69054C9.08433 3.31897 9.85388 2.88941 10.5805 2.72792C11.3516 2.55658 12.089 2.12096 12.8944 2.07622C13.2318 2.05747 13.6033 1.75335 13.9168 1.75335C14.2489 1.75335 14.8547 1.58062 15.1545 1.4544C16.1198 1.04796 17.1327 1 18.1679 1C19.1544 1 20.1409 1 21.1275 1C22.1687 1 23.1014 1.64573 24.0871 1.64573" stroke="#F7F7F7" stroke-width="2" stroke-linecap="round"/>
<path d="M23.9794 1.53811C25.2668 1.53811 26.4891 2.01566 27.6386 2.59041C28.7767 3.15946 29.59 4.13786 30.652 4.82057C31.3086 5.24272 31.824 5.8312 32.3739 6.38108C32.5944 6.60156 32.8059 6.80123 33.0196 7.02681C33.3153 7.33891 33.3814 7.70479 33.6116 8.03726C33.7969 8.30493 34.8925 10.8257 34.7416 10.9012" stroke="#F7F7F7" stroke-width="2" stroke-linecap="round"/>
<path d="M34.7416 10.9012C34.7416 11.7645 35.2125 12.7112 35.5787 13.4841C35.8043 13.9604 35.9501 14.484 36.2005 14.949C36.4313 15.3776 36.4166 16.116 36.7027 16.4736C36.8902 16.708 36.894 17.375 36.894 17.6813C36.894 18.1636 36.894 18.646 36.894 19.1283C36.894 19.79 36.6641 20.4137 36.5772 21.0654C36.5034 21.6185 36.4897 22.223 36.2722 22.7396C36.0507 23.2656 35.927 24.0491 35.8238 24.617C35.7265 25.1522 35.4836 25.6395 35.3036 26.1595C35.0088 27.0113 34.4251 27.6636 34.0122 28.4435C33.664 29.1012 32.9452 29.6272 32.5653 30.2731C32.3005 30.7232 31.5215 31.995 30.9749 31.995" stroke="#F7F7F7" stroke-width="2" stroke-linecap="round"/>
<path d="M6.22186 5.95059C5.82838 5.99978 5.32529 7.02861 5.03802 7.34967C4.56742 7.87564 4.19776 8.40518 3.69275 8.91019C2.93422 9.66872 2.03972 10.8729 1.917 11.9774C1.85751 12.5128 1.61678 13.2657 1.40281 13.7472C1.1482 14.32 1.36252 15.1285 1.10984 15.6844C0.899436 16.1472 1.05602 17.0213 1.05602 17.5199C1.05602 18.0986 1.27127 18.6348 1.27127 19.188" stroke="#F7F7F7" stroke-width="2" stroke-linecap="round"/>
<path d="M1.2713 19.188C1.2713 21.2604 1.86858 23.5634 2.80192 25.4301C3.35287 26.532 3.90479 27.7133 4.71519 28.6587C4.91683 28.894 5.12717 29.3061 5.30113 29.5795C5.51868 29.9214 5.67487 30.3163 5.94686 30.6378C6.25006 30.9961 6.55145 31.7831 6.97524 31.995" stroke="#F7F7F7" stroke-width="2" stroke-linecap="round"/>
<path d="M6.97522 31.995C7.79394 32.8137 9.02242 33.2824 9.93481 33.992C10.7021 34.5887 11.8077 35.1669 12.739 35.4329C13.1934 35.5628 13.6512 35.7685 14.1321 35.8754C14.4412 35.9441 14.7241 36.1402 15.0468 36.1863C15.3587 36.2308 15.8424 36.1991 16.1231 36.3238C16.6732 36.5683 17.5205 36.4075 18.12 36.4075C18.4384 36.4075 19.5669 36.5722 19.5669 36.1923" stroke="#F7F7F7" stroke-width="2" stroke-linecap="round"/>
<path d="M19.567 36.1923C20.6498 36.1923 21.745 36.143 22.7956 36.0846C23.2118 36.0615 23.8113 35.6545 24.1947 35.4628C24.7575 35.1814 25.3572 34.9892 25.9166 34.7095C26.4525 34.4415 27.049 34.3286 27.5788 34.0637C28.0367 33.8348 28.4987 33.5985 28.93 33.3702C29.3483 33.1487 29.6951 32.8262 30.1139 32.6168C30.5448 32.4013 30.8871 31.7798 31.4053 31.7798" stroke="#F7F7F7" stroke-width="2" stroke-linecap="round"/>
<path d="M12.2645 17.1345C12.0755 17.1345 11.4084 17.2393 11.3086 17.0597C11.0734 16.6362 10.9954 15.5774 11.159 15.1313C11.3692 14.558 12.559 14.4699 12.996 14.724C13.5914 15.0702 13.6255 15.8247 13.6111 16.4446C13.5941 17.1746 12.6498 17.5085 12.0401 17.5085C11.1915 17.5085 11.2132 16.1193 11.425 15.5801C11.6401 15.0325 12.1705 15.2695 12.3393 15.6965C12.5542 16.24 12.489 16.8604 12.489 17.4337" stroke="#F7F7F7" stroke-width="2" stroke-linecap="round"/>
<path d="M25.1502 17.2626C25.2018 17.2626 24.83 17.2626 24.7429 17.2626C24.5121 17.2626 24.3255 17.2187 24.2525 16.9634C24.0401 16.2198 23.8666 15.3957 24.6432 14.8687C25.0175 14.6147 25.9021 14.4657 26.3098 14.7232C26.7906 15.0269 26.973 16.1132 26.555 16.5311C26.1447 16.9414 25.569 17.3183 24.9632 17.1836C24.7894 17.145 24.7064 16.7143 24.7014 16.5727C24.6868 16.165 24.7123 15.8955 24.984 15.5752C25.1856 15.3376 26.0479 15.2694 26.0479 15.729C26.0479 16.0844 25.3747 16.6892 25.3747 16.1405" stroke="#F7F7F7" stroke-width="2" stroke-linecap="round"/>
<path d="M18.448 16.4682C18.448 16.9083 18.4723 17.3078 18.2984 17.7233C18.1293 18.1271 17.7899 18.4903 17.4755 18.7872C17.1329 19.1108 17.7292 19.7404 17.9992 20.0258C18.296 20.3395 18.5343 20.7898 18.8969 21.0315" stroke="#F7F7F7" stroke-width="2" stroke-linecap="round"/>
<path d="M12.8373 25.52C13.2276 25.5634 13.6214 26.0655 13.9595 26.2515C14.4897 26.5431 15.0365 26.8366 15.6053 27.0578C16.2449 27.3065 16.7961 27.7275 17.4755 27.8973C18.1239 28.0594 18.8251 28.0636 19.4912 28.0636C20.6531 28.0636 21.8537 27.3094 22.8617 26.7918C23.3717 26.5299 23.953 26.1494 24.3579 25.7445C24.5699 25.5325 25.0946 25.1803 25.1808 24.9216" stroke="#F7F7F7" stroke-width="2" stroke-linecap="round"/>
</svg>
