<svg width="32" height="32" viewBox="0 0 32 32" fill="none" xmlns="http://www.w3.org/2000/svg">
<g clip-path="url(#clip0_1_97)">
<path d="M20 5.33334V14.6667H6.89332L6.10666 15.4533L5.33332 16.2267V5.33334H20ZM21.3333 2.66667H3.99999C3.26666 2.66667 2.66666 3.26667 2.66666 4.00001V22.6667L7.99999 17.3333H21.3333C22.0667 17.3333 22.6667 16.7333 22.6667 16V4.00001C22.6667 3.26667 22.0667 2.66667 21.3333 2.66667ZM28 8H25.3333V20H7.99999V22.6667C7.99999 23.4 8.59999 24 9.33332 24H24L29.3333 29.3333V9.33334C29.3333 8.6 28.7333 8 28 8Z" fill="#171717"/>
</g>
<defs>
<clipPath id="clip0_1_97">
<rect width="32" height="32" fill="white"/>
</clipPath>
</defs>
</svg>
