<svg width="26" height="23" viewBox="0 0 26 23" fill="none" xmlns="http://www.w3.org/2000/svg">
<path d="M12.1508 2.01353C11.108 2.94045 10.3286 4.2192 9.18055 5.05413C8.2808 5.7085 7.37392 6.56046 6.57634 7.33458C5.45712 8.42088 3.92852 8.97872 2.71225 9.92472C2.49832 10.0911 2.23248 10.3381 2.01544 10.4737C1.80922 10.6026 1.28338 10.9327 1.15676 11.1353C0.941847 11.4792 0.857893 11.3887 1.50868 11.3887C2.23582 11.3887 2.94504 11.5154 3.66243 11.5154C4.07182 11.5154 4.36184 11.5512 4.73931 11.6351C4.9836 11.6893 4.99153 12.207 5.049 12.4656C5.31955 13.6831 5.05604 15.2342 5.05604 16.4704C5.05604 17.7749 5.05604 19.0794 5.05604 20.3838C5.05604 20.7217 5.05604 21.0595 5.05604 21.3973C5.05604 21.8113 5.76405 21.6507 6.06957 21.6507C6.5609 21.6507 10.594 21.8203 10.6234 21.6437C10.8479 20.2972 10.578 18.8071 10.6305 17.4417C10.6447 17.0726 10.7458 16.5884 10.8557 16.2311C10.9565 15.9035 10.7797 15.5037 10.912 15.1895C11.0474 14.8678 10.9274 14.562 11.0176 14.2463C11.0784 14.0335 12.0184 13.7294 12.2141 13.6692C12.9299 13.4489 13.7456 13.5425 14.4946 13.5425C14.9345 13.5425 14.6036 19.1509 14.4383 20.06C14.3971 20.2864 14.3419 21.638 14.5579 21.6507C15.4934 21.7058 16.4503 21.6507 17.3874 21.6507C17.8525 21.6507 18.2873 21.7774 18.7387 21.7774C19.0904 21.7774 19.6149 21.9886 19.9353 21.8971C20.2617 21.8038 20.0056 18.0289 20.0056 17.5332C20.0056 17.1649 20.0056 16.7966 20.0056 16.4282C20.0056 16.0295 20.2384 15.6876 20.259 15.3161C20.3033 14.5188 20.259 13.7073 20.259 12.909C20.259 11.8808 20.6337 12.1087 21.5189 11.8321C22.4705 11.5348 23.6354 11.6421 24.6299 11.6421C25.1223 11.6421 24.3069 11.0693 24.2146 10.9805C23.7787 10.5607 23.3956 10.1479 22.9196 9.76987C21.8782 8.94293 20.9112 8.00985 20.1042 6.9545C19.3548 5.97457 18.4903 5.16062 17.5492 4.36436C16.8087 3.73778 16.203 3.03315 15.3181 2.59068C14.3284 2.09584 13.0113 1 11.8974 1" stroke="white" stroke-width="2" stroke-linecap="round"/>
</svg>
