<svg width="25" height="26" viewBox="0 0 25 26" fill="none" xmlns="http://www.w3.org/2000/svg">
<path d="M17.0237 22.8414C16.7154 23.1155 16.0899 23.0354 15.7307 23.235C15.1616 23.5511 14.0627 23.934 13.4257 23.9658C11.9706 24.0386 10.3195 24.574 8.9282 23.8784C7.65413 23.2413 6.15078 22.7075 5.10531 21.7171C3.84396 20.5221 2.74195 18.995 2.15695 17.357C1.86372 16.536 1.5078 15.8566 1.33865 14.977C1.15914 14.0436 1.05756 13.2559 1.05756 12.2973C1.05756 11.6514 0.896224 10.7451 1.11377 10.136C1.30444 9.60212 1.4762 8.89695 1.50731 8.33698C1.62778 6.16844 3.7345 4.38147 5.44263 3.47717C6.06313 3.14867 6.61995 2.67477 7.24788 2.32156C7.90198 1.95362 8.58157 1.57716 9.2905 1.34085C10.7959 0.839056 12.716 0.936305 14.2128 1.34085C16.2813 1.89991 18.1179 2.85983 19.6348 4.37667C20.4944 5.23627 21.3191 6.29751 21.7961 7.42498C22.0087 7.92746 22.192 8.438 22.3645 8.95538C22.5226 9.42953 22.8382 9.88191 22.9579 10.3609C23.15 11.129 23.3202 12.0935 23.3202 12.8845C23.3202 13.6018 23.499 14.5956 23.2952 15.2831C23.0547 16.0951 22.6919 16.8622 22.427 17.6568C22.1836 18.387 21.5058 18.9885 21.0715 19.6057C20.407 20.55 19.22 21.7531 18.1231 22.1918C17.5842 22.4074 17.0668 22.7154 16.5302 22.9539C16.2085 23.0969 15.7314 23.1033 15.4496 23.2912" stroke="white" stroke-width="2" stroke-linecap="round"/>
<path d="M5.43995 7.51666C5.43995 8.07616 5.33332 8.62482 5.76151 9.05301C5.94316 9.23467 6.04917 9.46853 6.29745 9.57307C6.59531 9.69849 7.02748 9.73187 7.35344 9.73187C8.00098 9.73187 8.29237 9.59485 8.75878 9.12844C8.98501 8.90221 9.2708 8.58158 9.42573 8.3027C9.53204 8.11134 9.5369 7.8263 9.72744 7.73104" stroke="white" stroke-width="2" stroke-linecap="round"/>
<path d="M13.7291 7.51668C13.7291 8.12378 14.1685 8.43363 14.5906 8.80293C15.0885 9.2386 15.8822 9.73189 16.5557 9.73189C17.1525 9.73189 17.4548 9.65695 17.7308 9.08876C17.8905 8.75992 17.9574 8.41687 18.0722 8.07247C18.1506 7.83722 18.3025 7.54939 18.3025 7.30231" stroke="white" stroke-width="2" stroke-linecap="round"/>
<path d="M11.6568 11.0181C11.6568 11.6674 11.0081 12.0956 10.5849 12.5187C10.1107 12.993 10.7249 13.5162 11.0852 13.8765" stroke="white" stroke-width="2" stroke-linecap="round"/>
<path d="M8.79852 16.7348C8.79852 17.297 9.53398 17.7434 9.95773 18.021C10.5619 18.4169 11.7294 18.9881 12.4786 18.6999C13.3925 18.3484 14.6581 17.8672 14.6581 16.7348" stroke="white" stroke-width="2" stroke-linecap="round"/>
</svg>
