<svg width="25" height="26" viewBox="0 0 25 26" fill="none" xmlns="http://www.w3.org/2000/svg">
<path d="M17.3666 23.3131C17.0582 23.5871 16.4327 23.507 16.0735 23.7066C15.5044 24.0228 14.4055 24.4056 13.7685 24.4374C12.3135 24.5102 10.6623 25.0456 9.27103 24.35C7.99696 23.713 6.49362 23.1791 5.44815 22.1887C4.18679 20.9937 3.08479 19.4666 2.49978 17.8286C2.20656 17.0076 1.85063 16.3282 1.68148 15.4487C1.50198 14.5152 1.40039 13.7275 1.40039 12.7689C1.40039 12.123 1.23906 11.2167 1.45661 10.6076C1.64727 10.0737 1.81903 9.36857 1.85014 8.80859C1.97062 6.64006 4.07734 4.85309 5.78546 3.94879C6.40596 3.62028 6.96278 3.14639 7.59071 2.79318C8.24482 2.42524 8.92441 2.04878 9.63333 1.81247C11.1387 1.31067 13.0588 1.40792 14.5556 1.81247C16.6241 2.37153 18.4608 3.33145 19.9776 4.84829C20.8372 5.70789 21.6619 6.76912 22.1389 7.8966C22.3515 8.39908 22.5349 8.90962 22.7073 9.427C22.8654 9.90114 23.181 10.3535 23.3008 10.8325C23.4928 11.6007 23.6631 12.5651 23.6631 13.3561C23.6631 14.0734 23.8418 15.0672 23.6381 15.7547C23.3975 16.5667 23.0347 17.3338 22.7698 18.1284C22.5264 18.8586 21.8487 19.4601 21.4143 20.0774C20.7498 21.0216 19.5628 22.2247 18.4659 22.6634C17.927 22.879 17.4096 23.187 16.8731 23.4255C16.5514 23.5685 16.0742 23.5749 15.7924 23.7628" stroke="#F3F3F3" stroke-width="2" stroke-linecap="round"/>
<path d="M5.78278 7.98828C5.78278 8.54778 5.67615 9.09644 6.10434 9.52463C6.286 9.70628 6.392 9.94015 6.64028 10.0447C6.93815 10.1701 7.37031 10.2035 7.69627 10.2035C8.34382 10.2035 8.63521 10.0665 9.10162 9.60006C9.32785 9.37383 9.61363 9.05319 9.76856 8.77432C9.87488 8.58296 9.87974 8.29792 10.0703 8.20266" stroke="#F3F3F3" stroke-width="2" stroke-linecap="round"/>
<path d="M14.072 7.9883C14.072 8.5954 14.5114 8.90525 14.9334 9.27455C15.4313 9.71022 16.2251 10.2035 16.8985 10.2035C17.4953 10.2035 17.7976 10.1286 18.0736 9.56038C18.2333 9.23154 18.3002 8.88849 18.415 8.54409C18.4934 8.30884 18.6453 8.02101 18.6453 7.77393" stroke="#F3F3F3" stroke-width="2" stroke-linecap="round"/>
<path d="M11.9997 11.4897C11.9997 12.139 11.3509 12.5672 10.9278 12.9904C10.4535 13.4646 11.0678 13.9879 11.428 14.3481" stroke="#F3F3F3" stroke-width="2" stroke-linecap="round"/>
<path d="M9.14136 17.2064C9.14136 17.7686 9.87682 18.215 10.3006 18.4927C10.9047 18.8885 12.0722 19.4597 12.8215 19.1715C13.7353 18.82 15.0009 18.3388 15.0009 17.2064" stroke="#F3F3F3" stroke-width="2" stroke-linecap="round"/>
</svg>
