<svg width="179" height="156" viewBox="0 0 179 156" fill="none" xmlns="http://www.w3.org/2000/svg">
<path d="M35.8513 68.8046C35.8513 66.6591 35.4007 63.6518 36.8284 61.8671C37.8805 60.552 38.6193 59.2526 39.4666 57.8121C40.6829 55.7444 43.2476 54.1197 45.1827 52.78C46.328 51.9871 47.2567 50.555 48.4072 49.8975C49.3187 49.3766 50.795 48.7433 51.4362 47.9188C54.6151 43.8318 58.3566 41.9827 62.8929 39.5401C64.3907 38.7336 67.8654 37.1462 69.4884 37.1462C71.7402 37.1462 74.0521 35.8271 76.3038 35.8271C78.4907 35.8271 80.7162 35.7058 82.8993 35.8271C85.0675 35.9475 87.1463 37.801 89.0551 38.0256C90.5506 38.2015 93.3314 40.0177 94.4292 41.0058C95.9794 42.4009 97.3088 44.0916 98.9239 45.4761C102.152 48.2426 105.558 51.1095 108.207 54.5144C110.471 57.4263 113.478 61.6819 113.678 65.287C113.999 71.062 114.729 76.6601 112.701 82.3377C111.894 84.5992 110.584 86.8691 109.623 89.0309C108.633 91.2587 107.757 92.7542 105.984 94.5271C102.77 97.7409 98.532 99.6633 94.9911 102.417C91.3003 105.288 88.0213 107.469 83.7787 109.355C79.5178 111.249 73.0375 110.137 68.3892 110.137C63.2941 110.137 57.6896 110.202 53.2195 107.718C49.1706 105.469 45.0938 101.699 42.2514 98.0448C39.3572 94.3236 38.3609 89.7174 35.8513 85.953" stroke="#EA8777" stroke-width="64" stroke-linecap="round"/>
<path d="M74.1053 74.081C74.0107 74.8381 72.9657 74.4216 73.5191 74.081C74.6727 73.3711 76.4241 73.6413 77.7207 73.6413C79.6405 73.6413 82.8994 72.6868 82.8994 75.4001" stroke="#EA8777" stroke-width="64" stroke-linecap="round"/>
<path d="M54.3068 5.63893C52.2341 5.63893 50.6116 6.66433 48.7143 7.20642C47.7835 7.47236 46.6862 7.9999 45.7999 8.44307C44.4717 9.10718 43.0042 9.37306 41.6882 10.0657C40.4069 10.7401 39.1584 11.306 37.9388 12.0822C36.9708 12.6982 35.9494 13.2382 34.9535 13.7914C33.769 14.4495 32.7531 15.4137 31.7634 16.3514C31.2362 16.8509 30.0974 17.336 29.7784 17.974" stroke="#F3F3F3" stroke-width="3" stroke-linecap="round"/>
<path d="M29.7784 18.1158C28.8311 18.1158 27.9721 18.7568 27.3603 19.4706C26.7822 20.145 25.9447 20.6893 25.3202 21.3138C23.7739 22.8601 22.1617 24.5195 20.5941 26.0871C19.7267 26.9545 19.222 28.2311 18.3571 29.0961C17.6025 29.8506 17.1721 30.8301 16.5296 31.656C15.7952 32.6003 15.1452 33.4944 14.6392 34.5626C14.2793 35.3224 13.3317 36.4269 13.3317 37.2564" stroke="#F3F3F3" stroke-width="3" stroke-linecap="round"/>
<path d="M13.3317 37.2564C12.4696 38.2263 11.926 39.5016 11.0553 40.5174C10.6079 41.0394 10.1935 41.7641 9.85014 42.3527C9.54533 42.8753 9.02772 43.3694 8.82615 43.9517C8.59702 44.6137 8.28626 45.2836 7.97546 45.9052C7.61453 46.627 7.50546 47.6336 7.03024 48.2446C6.79189 48.551 6.4145 49.8132 6.38434 50.1902C6.33205 50.8439 6.10953 51.8072 5.88811 52.4272C5.7365 52.8517 5.74509 53.2732 5.64392 53.7032C5.5524 54.0922 5.31427 54.4433 5.25796 54.8375C5.13266 55.7146 4.71689 56.6176 4.68295 57.4998C4.629 58.9026 4.4113 60.4978 3.91103 61.8557C3.45042 63.1059 3.12335 64.8605 3.12335 66.1801C3.12335 67.4053 2.698 68.6869 2.698 69.8664" stroke="#F3F3F3" stroke-width="3" stroke-linecap="round"/>
<path d="M2.27271 70.15C2.27271 72.216 2.41449 74.3364 2.41449 76.3569C2.41449 78.4963 2.87081 80.6634 2.98162 82.7686C3.04365 83.9472 3.40697 85.1882 3.40697 86.3841C3.40697 87.175 3.50098 88.5731 3.94259 89.1804C4.18788 89.5176 4.01033 90.3121 4.32855 90.5667C4.54456 90.7395 4.82479 92.024 4.82479 92.339C4.82479 92.5663 5.00057 93.3211 5.13986 93.5126C5.38764 93.8533 5.35495 94.8017 5.67549 94.9619" stroke="#F3F3F3" stroke-width="3" stroke-linecap="round"/>
<path d="M5.39185 94.8201C5.39185 96.4688 6.92711 97.7478 7.36892 99.2942C7.91209 101.195 8.60431 102.835 9.53505 104.603C9.94401 105.38 10.5631 106.317 11.0947 106.982C11.7345 107.782 12.1885 108.815 12.8276 109.636C13.4898 110.488 14.0756 111.549 14.6077 112.48C14.9321 113.048 15.588 114.238 16.1673 114.528" stroke="#F3F3F3" stroke-width="3" stroke-linecap="round"/>
<path d="M16.1674 114.528C16.1674 115.247 16.3951 115.655 16.8211 116.245C17.2087 116.782 17.5628 117.457 18.0105 117.931C18.2449 118.179 18.3392 118.609 18.6407 118.781C19.1291 119.06 19.214 119.92 19.7119 120.231C20.1826 120.525 20.3325 121.221 20.8462 121.507C21.9851 122.139 22.4645 123.791 23.4692 124.594C23.9139 124.95 24.1554 125.572 24.564 125.981C24.9377 126.354 25.5924 126.856 25.8086 127.288" stroke="#F3F3F3" stroke-width="3" stroke-linecap="round"/>
<path d="M42.3526 100.151C41.0949 100.291 40.417 102.322 39.6855 103.11C38.0756 104.844 37.0002 106.849 35.5076 108.673C34.3161 110.13 33.51 111.878 32.5904 113.487C31.6778 115.084 30.9154 116.748 30.4963 118.529C30.2288 119.666 29.8521 120.935 29.7878 122.093C29.7189 123.333 29.2252 124.602 29.2252 125.833C29.2252 126.466 29.0322 127.188 28.8918 127.802C28.7516 128.416 29.0667 129.317 28.7564 129.875C28.4133 130.493 29.0737 132.483 28.4751 132.782" stroke="#F3F3F3" stroke-width="3" stroke-linecap="round"/>
<path d="M28.4751 132.782C27.7333 132.782 26.1854 132.487 25.5579 132.886C24.4968 133.561 23.8187 134.489 23.2658 135.595C22.8899 136.347 22.8119 137.978 23.2241 138.7C23.7387 139.6 24.9399 139.406 25.6204 139.95C25.7969 140.091 26.4515 140.283 25.8496 140.283C25.117 140.283 24.1097 140.586 23.4013 140.773C21.8415 141.186 20.6775 142.098 19.661 143.284C18.6422 144.472 18.8544 146.844 19.1088 148.243C19.3905 149.792 22.0945 150.137 23.2241 150.212C25.1311 150.339 26.6822 149.54 28.2459 148.535C28.8412 148.152 29.4626 147.709 29.9754 147.222C30.5403 146.685 30.538 146.643 30.538 147.431C30.538 148.677 30.538 149.924 30.538 151.171C30.538 151.65 30.3713 152.863 30.913 153.182C31.5993 153.585 32.576 153.411 33.351 153.411C34.8531 153.411 37.8518 154.151 37.8518 151.994C37.8518 150.559 37.6643 149.171 37.6643 147.743C37.6643 147 37.8904 145.78 37.4767 145.159" stroke="#F3F3F3" stroke-width="3" stroke-linecap="round"/>
<path d="M37.4768 144.972C38.7346 144.972 39.6312 146.199 40.5711 146.93C41.2664 147.471 42.5602 147.551 43.3946 147.399C45.7352 146.974 46.3723 142.966 44.1343 141.971C43.8947 141.865 43.0389 141.339 43.6759 141.419C44.7232 141.55 45.7469 141.859 46.7806 142.055C47.5525 142.201 50.2652 142.601 50.7917 141.679C51.6992 140.092 49.9661 138.726 49.479 137.387C49.2095 136.646 48.0731 135.448 47.3119 135.23C45.4675 134.703 44.1664 134.298 44.0405 132.032C43.9492 130.388 43.6654 128.824 43.6654 127.156C43.6654 124.877 43.9523 122.585 44.4573 120.363C45.2447 116.898 46.7411 113.123 48.8747 110.278C49.5472 109.381 50.2589 108.451 50.7917 107.465C51.2945 106.535 52.1434 105.877 52.5212 104.881C52.9078 103.862 53.8337 103.028 54.1674 102.026" stroke="#F3F3F3" stroke-width="3" stroke-linecap="round"/>
<path d="M51.7294 142.534C52.975 142.534 54.0775 143.963 55.2925 144.034C56.4568 144.103 57.6791 144.784 58.8557 144.784C59.1636 144.784 60.5633 145.043 60.731 145.253C60.9504 145.527 62.2172 145.591 62.6064 145.764C63.718 146.258 65.3835 146.404 66.5446 146.472C69.4881 146.645 72.4932 146.472 75.442 146.472C76.533 146.472 79.4237 146.946 80.2763 146.326C80.6342 146.066 81.9458 146.13 82.4017 146.087C83.2113 146.009 84.2509 145.795 84.923 145.347" stroke="#F3F3F3" stroke-width="3" stroke-linecap="round"/>
<path d="M84.1729 145.534C88.1821 145.534 91.6965 144.977 95.3832 143.701C97.6476 142.917 99.7881 141.595 101.989 140.617C103.828 139.799 105.78 139.094 107.521 138.127C109.529 137.011 111.627 136.083 113.605 134.928C115.908 133.585 117.98 131.634 120.461 130.532C121.142 130.229 122.299 129.269 122.659 128.656C122.865 128.306 123.515 128.052 123.836 127.802C124.232 127.494 124.469 127 124.962 126.781C125.239 126.658 125.879 126.107 126.035 125.843C126.313 125.371 127.046 125.123 127.452 124.76C128.563 123.763 130.927 123.289 131.619 121.905" stroke="#F3F3F3" stroke-width="3" stroke-linecap="round"/>
<path d="M130.681 122.093C130.949 122.059 131.444 121.368 131.577 121.155C131.818 120.77 132.405 120.369 132.744 120.03C133.6 119.174 134.188 118.24 134.911 117.31C135.665 116.342 136.594 114.835 137.016 113.695C137.528 112.313 138.524 111.09 139.225 109.788C139.923 108.491 140.576 107.133 141.277 105.871C141.984 104.598 142.88 103.129 143.392 101.797C143.877 100.535 144.626 99.3341 144.924 97.9944C145.131 97.0625 145.655 96.0829 146.059 95.2751" stroke="#F3F3F3" stroke-width="3" stroke-linecap="round"/>
<path d="M145.872 96.0253C145.872 94.8958 146.059 93.7222 146.059 92.6497C146.059 92.1105 146.292 91.6923 146.424 91.2327C146.574 90.7084 146.446 89.9517 146.663 89.4616C147.088 88.5068 147.314 86.9474 147.372 85.8984C147.4 85.3931 147.616 84.6226 147.757 84.1273C147.91 83.5914 147.839 82.8786 148.08 82.3353C148.47 81.4578 148.497 79.7867 148.497 78.8138C148.497 77.4551 148.431 75.6111 148.83 74.313C149.154 73.2605 149.018 71.4617 149.06 70.3747C149.101 69.3034 149.06 68.2152 149.06 67.145" stroke="#F3F3F3" stroke-width="3" stroke-linecap="round"/>
<path d="M54.0133 5.26887C55.8677 5.26887 57.558 4.14146 59.3276 3.6632C60.5911 3.3217 61.897 2.95673 63.1967 2.75677C64.2134 2.60035 65.2376 2.1922 66.2734 2.1922C67.8911 2.1922 69.5089 2.1922 71.1266 2.1922C72.0728 2.1922 73.0189 2.1922 73.9651 2.1922C74.3547 2.1922 74.7904 2.35718 75.1771 2.37866C75.6596 2.40547 76.1052 2.35431 76.5756 2.47189" stroke="#F3F3F3" stroke-width="3" stroke-linecap="round"/>
<path d="M76.5756 2.4719C77.6338 2.4719 78.7298 2.38843 79.7662 2.58585C80.851 2.79247 82.1012 2.93806 83.1951 2.93806C85.9209 2.93806 88.6741 3.08066 91.2856 3.8911C91.9174 4.08718 92.628 4.12653 93.2849 4.26403C93.8231 4.37668 94.4954 4.493 95.0356 4.52301C96.4761 4.60304 97.7677 5.37997 99.1793 5.63662C100.11 5.80589 100.834 6.41284 101.707 6.66218C102.075 6.76747 102.507 7.11742 102.821 7.36142C103.114 7.58991 103.708 7.50993 103.893 7.87938" stroke="#F3F3F3" stroke-width="3" stroke-linecap="round"/>
<path d="M103.473 7.92807C105.195 7.92807 106.543 9.17202 107.856 10.185C108.78 10.8975 109.799 11.53 110.812 12.0924C111.709 12.591 112.655 12.9511 113.564 13.432C114.452 13.9023 115.621 14.3115 116.388 14.939C116.648 15.1516 117.311 15.5381 117.626 15.6306C118.125 15.7773 118.476 16.1574 118.936 16.3877C119.83 16.8343 120.673 17.5131 121.375 18.2151C122.193 19.0324 123.354 19.5535 124.178 20.3773C124.686 20.8853 125.274 21.253 125.882 21.5567" stroke="#F3F3F3" stroke-width="3" stroke-linecap="round"/>
<path d="M125.518 21.5673C125.537 21.7216 126.205 22.4328 126.348 22.5763C126.613 22.8409 126.922 23.3074 127.242 23.4959C127.952 23.9132 128.55 24.7782 129.133 25.3606C129.99 26.2183 130.435 27.3602 131.266 28.2344C132.175 29.1916 132.92 30.2332 133.852 31.1656C134.811 32.1243 135.433 33.4366 136.259 34.4992C136.678 35.0368 137.02 35.7403 137.358 36.332C137.567 36.6976 137.907 37.017 138.105 37.3729C138.699 38.4418 139.39 39.4501 139.932 40.534C140.152 40.9759 140.273 41.4128 140.519 41.8559C140.659 42.1071 141.38 43.0641 141.266 43.1779" stroke="#F3F3F3" stroke-width="3" stroke-linecap="round"/>
<path d="M141.266 43.1779C141.266 44.5004 142.399 45.2793 142.761 46.4539C142.905 46.9249 143.349 47.4204 143.616 47.8397C143.993 48.4314 144.342 49.2643 144.574 49.9344C145.072 51.3733 145.785 52.7294 146.209 54.2131C146.555 55.4245 146.988 56.5464 147.269 57.7765C147.501 58.7902 147.703 60.0199 147.703 61.059C147.703 62.0258 147.997 63.0097 148.048 63.9838C148.073 64.4491 148.278 64.8997 148.278 65.3632C148.278 65.8325 148.288 66.2416 148.387 66.6851C148.478 67.0963 148.41 67.539 148.502 67.9496C148.559 68.2069 148.752 69.0348 148.508 69.1565" stroke="#F3F3F3" stroke-width="3" stroke-linecap="round"/>
<path d="M148.675 55.9136C154.417 55.9136 158.064 60.5672 162.003 63.9435C163.8 65.4836 164.455 67.6788 166.054 69.4774C166.559 70.0458 168.361 74.5167 168.809 74.5167C169.172 74.5167 168.881 73.7492 169.445 73.716C169.984 73.6843 170.436 73.7775 170.928 73.5041C172.033 72.8905 174.313 73.1933 175.379 73.8102C177.449 75.0088 178.457 78.7245 175.567 79.2499C174.035 79.5285 172.755 79.4498 174.296 80.7099C175.417 81.6274 176.226 82.9446 176.226 84.4069C176.226 86.2799 175.732 86.7479 173.872 87.1856C173.174 87.3497 170.284 87.1583 170.316 87.3505C170.713 89.731 171.696 93.214 168.385 93.214C166.797 93.214 166.444 92.1396 165.653 90.9533C164.583 89.3481 167.008 94.6786 166.901 96.6049C166.838 97.7413 165.21 97.8765 164.358 97.8765C162.301 97.8765 163.992 97.7719 162.851 98.9126C160.277 101.487 158.586 99.6276 157.67 97.4527C155.583 92.4949 157.59 87.1189 155.127 82.1934C154.196 80.3304 150.829 73.716 148.675 73.716" stroke="#F3F3F3" stroke-width="3" stroke-linecap="round"/>
<path d="M92.5162 41.1204C92.5718 41.6203 93.7507 42.871 94.1557 43.1241C94.6709 43.4461 94.9284 44.1187 95.4673 44.4357C96.8791 45.2662 98.0009 46.2677 99.6023 46.822C101.415 47.4495 102.935 48.17 104.903 48.17C107.1 48.17 109.295 48.6427 111.37 47.6053C112.379 47.1008 113.494 46.8569 114.394 46.1207C115.222 45.4433 115.718 44.8402 116.379 43.9894C117.393 42.6863 118.18 41.0918 118.411 39.4809C118.867 36.2876 119.075 33.1301 119.075 29.8081" stroke="#F3F3F3" stroke-width="3" stroke-linecap="round"/>
<path d="M51.8578 54.5639C52.6676 54.6651 53.5484 55.9151 54.0437 56.4219C54.6562 57.0487 55.2619 57.6401 55.8836 58.2618C56.7403 59.1186 57.9527 59.808 58.9894 60.384C60.1053 61.0039 61.4848 61.6461 62.7693 61.7684C64.32 61.9161 66.3258 62.2789 67.8425 61.6955C70.7802 60.5656 73.3166 57.9882 74.7737 55.2197C76.138 52.6275 77.2693 49.9063 77.2693 47.0224" stroke="#F3F3F3" stroke-width="3" stroke-linecap="round"/>
<path d="M90.2211 54.3999C91.8814 54.3999 93.529 55.8868 94.8115 56.8227C95.7537 57.5102 96.8092 58.1281 97.635 58.954C98.6105 59.9295 96.96 61.5264 96.451 62.2693C95.6471 63.4426 94.4482 64.6354 93.8279 65.8761" stroke="#F3F3F3" stroke-width="3" stroke-linecap="round"/>
<path d="M80.8761 82.9265C81.4855 82.9265 82.0868 83.556 82.6431 83.7826C83.7892 84.2496 84.7897 85.31 85.9766 85.7955C87.9285 86.594 89.6615 87.7084 91.7329 88.3002C93.7269 88.8699 96.1835 89.1207 98.2361 88.6646C100.134 88.2428 101.635 86.9245 103.373 86.2418C105.029 85.5914 107.152 84.0791 108.164 82.6077C108.703 81.8231 109.436 81.1662 109.976 80.3853C110.407 79.7637 110.707 79.0612 111.206 78.4999C111.925 77.6907 112.438 75.868 112.672 74.8112C112.863 73.9524 113.197 72.1201 112.354 71.6142" stroke="#F3F3F3" stroke-width="3" stroke-linecap="round"/>
</svg>
