<svg width="155" height="151" viewBox="0 0 155 151" fill="none" xmlns="http://www.w3.org/2000/svg">
<path d="M32.1499 77.481C32.1499 74.9059 32.4945 71.836 34.1655 69.7936C34.9037 68.8914 35.1239 66.981 35.7358 65.8796C36.1938 65.0552 37.1047 63.6303 37.2124 62.7155C37.4048 61.0798 39.4722 58.7178 40.2592 57.2312C41.4741 54.9363 42.7352 52.0895 44.4779 50.1531C46.0788 48.3743 47.2322 46.1801 48.931 44.4813C50.6882 42.7241 52.6962 41.1379 54.4154 39.4188C58.4874 35.3468 64.2692 35.6049 69.2746 33.8173C73.7419 32.2219 80.5087 32.1419 85.0948 33.1611C89.4052 34.1189 94.9644 35.6578 98.5947 38.4813C100.593 40.0354 102.956 41.8257 105.345 42.8875C108.11 44.1165 110.403 46.8912 112.516 49.0047C114.17 50.6581 115.5 52.6819 116.946 54.489C117.954 55.7485 120.559 59.3765 120.743 61.028C120.897 62.4182 122.162 63.7116 122.407 65.0593C122.694 66.6393 122.852 68.1614 122.852 69.7936C122.852 72.3774 122.569 75.126 122.43 77.481C122.099 83.1171 117.205 88.0032 113.477 91.7309C109.581 95.6275 105.101 100.098 102.274 104.903C101.078 106.937 99.2922 108.144 97.6338 109.637C96.1329 110.988 94.905 112.554 93.1104 113.551C88.0579 116.358 82.7229 116.293 77.0792 116.293C71.4966 116.293 64.1429 115.742 59.3372 112.684C54.9812 109.912 49.9774 106.804 47.3373 102.184C44.4627 97.1535 41.0092 93.7912 41.0092 87.606" stroke="#EA8777" stroke-width="64" stroke-linecap="round"/>
<path d="M81.087 76.2154C80.4089 76.2154 76.4963 76.6402 76.4465 75.7936C76.3682 74.4625 77.1843 73.6842 78.5558 73.6842" stroke="#EA8777" stroke-width="64" stroke-linecap="round"/>
<path d="M61.2818 96.6772C61.163 97.6279 60.4196 96.089 60.4196 95.6713C60.4196 95.044 60.2566 94.2226 60.6432 93.7393C61.6174 92.5215 62.4049 91.3562 64.2197 91.2166C66.2302 91.062 67.47 90.6948 69.329 91.7275C70.5624 92.4128 71.3945 94.8119 71.6122 96.1184C72.0896 98.9827 73.5118 102.597 74.9333 105.155C75.4279 106.046 75.7116 108.887 76.9611 108.173C78.3935 107.355 80.0253 106 80.9527 104.661C82.8778 101.88 84.9403 98.7565 87.499 96.4537C88.5295 95.5262 90.296 94.4889 91.6823 94.378C92.2614 94.3317 93.6555 93.9559 94.189 93.6595C95.457 92.9551 95.1231 94.2138 95.642 94.362C95.9902 94.4615 97.4361 94.5394 97.7177 94.3141C98.0308 94.0637 99.429 93.9145 98.1807 94.1066C94.6784 94.6454 90.727 98.2711 88.2974 100.701C87.1581 101.84 86.9982 103.552 86.3494 105.012C85.7688 106.318 84.8486 108.317 84.8486 109.754C84.8486 112.805 84.5612 116.091 84.5612 119.238C84.5612 120.368 84.3266 123.218 85.2797 123.98C85.6266 124.258 85.8209 125.08 86.2217 125.481C86.68 125.939 87.2056 125.981 87.6587 126.343C88.0921 126.69 89.1061 126.346 88.5848 126.998C87.8645 127.898 86.616 128.79 85.7746 129.664C84.3748 131.118 83.4304 132.871 81.9746 134.326C80.9861 135.315 76.951 138.968 75.6518 137.344C73.9207 135.18 71.3776 133.978 70.1912 131.309C69.6766 130.151 68.5285 129.01 68.1954 127.844C67.8493 126.633 68.7548 124.483 69.2651 123.405C70.1457 121.546 70.4598 119.278 71.1173 117.306C71.7568 115.388 72.203 114.072 72.203 112.053C72.203 110.341 71.1415 109.521 70.4786 108.029C69.8715 106.663 69.6164 105.701 69.6164 104.15" stroke="#C7B541" stroke-width="14" stroke-linecap="round"/>
<path d="M74.7896 117.37C74.7896 120.44 73.7317 125.463 77.0888 127.142" stroke="#C7B541" stroke-width="14" stroke-linecap="round"/>
<path d="M51.9835 106.236C51.9835 105.029 51.9835 103.822 51.9835 102.615C51.9835 101.205 54.9328 99.5311 56.0878 99.4761C57.5013 99.4088 58.1243 99.8183 58.7436 101.166C59.3621 102.512 58.4905 104.546 60.1922 104.546C62.9685 104.546 64.1387 107.918 63.1966 110.341C62.7957 111.372 62.2542 112.272 61.0372 112.272C60.4381 112.272 60.5433 112.193 61.0506 112.285C61.7826 112.418 62.7815 112.985 63.3308 113.479C64.5598 114.585 64.7794 115.263 64.7794 117.047C64.7794 118.537 63.6939 119.032 62.3651 119.032C61.0484 119.032 61.9954 118.499 62.8479 118.549C64.2407 118.631 63.0621 121.096 62.4724 121.433C61.8296 121.8 61.0424 121.929 60.3129 121.929C59.6489 121.929 59.8062 121.57 60.058 121.822C61.0421 122.806 60.0744 124.075 58.9984 124.344C57.6007 124.693 56.2653 124.947 55.3904 123.525C54.6872 122.383 53.8559 121.269 53.4321 119.998" stroke="#F3F3F3" stroke-width="3" stroke-linecap="round"/>
<path d="M51.5007 107.202C49.8781 107.202 48.1071 108.308 46.6721 108.946C45.4372 109.494 43.4337 110.27 42.0849 110.341C38.8397 110.511 35.2464 111.869 31.918 110.944C30.0437 110.423 28.0352 110.396 26.1505 109.858C24.5177 109.391 22.9245 108.629 21.4426 107.805C20.2875 107.164 19.1013 106.343 17.8345 105.981C16.9781 105.737 15.3065 105.043 14.5618 104.546" stroke="#F3F3F3" stroke-width="3" stroke-linecap="round"/>
<path d="M52.4664 120.481C48.885 120.481 46.5393 122.221 43.2384 123.431C38.5449 125.152 34.1644 126.679 29.2086 127.67C27.1656 128.078 25.1092 128.206 23.0118 128.206C21.0856 128.206 18.8859 128.508 17.0297 127.911C13.6892 126.838 10.8673 124.71 8.7674 121.876C6.74226 119.142 4.96783 116.1 3.99243 112.808C3.62509 111.569 3.69735 110.294 3.69735 108.999C3.69735 107.89 3.31273 106.015 3.751 105.029C4.5718 103.182 4.91342 101.041 5.81658 99.2347C6.48722 97.8934 7.15416 96.6668 7.80167 95.3718" stroke="#F3F3F3" stroke-width="3" stroke-linecap="round"/>
<path d="M104.374 102.856C104.374 101.802 104.374 101.407 103.408 100.978C102.174 100.43 100.169 100.442 98.8211 100.442C97.7082 100.442 95.8955 100.095 95.0119 100.978C94.6388 101.351 94.0465 103.141 94.5961 103.58C95.6277 104.406 96.0731 103.256 94.8375 103.943C93.7141 104.567 93.9925 105.818 93.9925 106.96C93.9925 108.226 94.3059 108.651 95.6825 108.651C96.494 108.651 95.1579 109.405 94.8241 109.804C93.9164 110.89 92.9425 112.548 92.4366 113.882C92.0183 114.985 91.3037 117.449 91.8465 118.67C92.308 119.708 94.4418 119.542 95.079 119.032C95.3235 118.836 95.4411 118.455 95.4411 118.938C95.4411 119.897 95.3866 120.862 95.5618 121.809C95.8436 123.33 96.2831 125.869 98.2846 125.792C99.4476 125.747 99.6072 123.629 99.8405 122.841C100.026 122.215 99.8707 121.855 100.27 122.466C100.774 123.237 101.168 124.034 101.611 124.84C101.829 125.237 103.839 127.536 104.146 126.154C104.375 125.125 105.34 124.245 105.34 123.136" stroke="#F3F3F3" stroke-width="3" stroke-linecap="round"/>
<path d="M105.34 123.136C106.077 123.218 107.848 124.603 108.425 125.121C109.264 125.877 110.391 126.747 111.376 127.294C113.94 128.719 116.143 129.655 119.101 129.655C124.983 129.655 131.682 130.848 137.088 127.844C138.47 127.077 139.741 126.285 141.072 125.43C142.492 124.517 143.195 123.106 144.21 121.808C145.436 120.243 146.456 118.527 147.711 116.993C148.184 116.415 148.631 115.842 148.985 115.169C149.17 114.817 149.369 113.94 149.642 113.721C150.185 113.286 150.005 110.904 150.005 110.22C150.005 109.026 150.246 107.833 150.246 106.598C150.246 104.667 148.073 103.581 147.107 102.132" stroke="#F3F3F3" stroke-width="3" stroke-linecap="round"/>
<path d="M103.65 102.856C105.012 102.856 107.319 105.169 108.452 105.861C110.629 107.191 112.962 108.891 115.346 109.844C116.962 110.491 118.613 112.031 120.443 112.031C122.071 112.031 123.611 112.272 125.258 112.272C127.059 112.272 129.153 112.025 130.878 111.494C132.409 111.023 134.395 110.341 136.002 110.341C138.588 110.341 140.594 108.168 143.003 108.168" stroke="#F3F3F3" stroke-width="3" stroke-linecap="round"/>
<path d="M54.6392 100.442C54.6392 95.1203 53.512 89.739 57.5364 85.7146C60.8163 82.4347 66.0566 82.7681 69.9701 84.5074C71.4484 85.1644 72.3767 86.5938 73.5916 87.5387C74.8903 88.5488 76.3777 90.4923 77.213 91.8845C77.9881 93.1763 79.2579 95.5128 79.52 96.9545C79.821 98.6097 80.7138 99.5934 80.7138 101.408" stroke="#F3F3F3" stroke-width="3" stroke-linecap="round"/>
<path d="M80.9552 101.166C80.9552 98.1809 81.3309 95.3909 82.994 92.8502C84.5743 90.4358 86.7281 88.5098 89.1102 86.9217C92.1869 84.8706 95.9929 83.9925 99.4381 84.9768C102.288 85.791 104.716 90.0915 105.326 92.8368C105.694 94.4895 106.437 99.5311 104.615 100.442" stroke="#F3F3F3" stroke-width="3" stroke-linecap="round"/>
<path d="M59.2264 125.792C59.2264 126.471 59.8364 126.667 60.1385 127.241C60.7328 128.37 61.6196 129.279 62.3114 130.379C63.2815 131.923 64.4482 133.443 65.6914 134.779C66.5615 135.713 67.1761 137 68.1594 137.81C69.5975 138.994 70.6553 140.669 72.0223 141.968C72.7248 142.635 74.3682 143.211 74.678 144.141" stroke="#F3F3F3" stroke-width="3" stroke-linecap="round"/>
<path d="M96.4068 124.102C96.4068 125.279 95.5235 126.434 94.7168 127.241C93.5699 128.387 92.5996 129.626 91.4708 130.755C90.8275 131.398 90.411 132.271 89.7674 132.914C89.2941 133.388 88.5777 133.897 88.2518 134.484C87.6582 135.552 86.4374 137.2 85.4217 137.877C83.4124 139.217 82.2365 141.757 79.9895 142.88C78.4562 143.647 76.3659 144.382 74.678 144.382" stroke="#F3F3F3" stroke-width="3" stroke-linecap="round"/>
<path d="M42.8091 26.564C42.8091 28.9896 44.3777 30.8176 46.2428 32.3583C49.1191 34.7344 52.6302 37.2313 56.3158 38.1527C59.4495 38.9361 63.5755 38.722 66.3352 37.0662C68.5314 35.7485 69.9888 33.4725 72.0222 32.1169" stroke="#F3F3F3" stroke-width="3" stroke-linecap="round"/>
<path d="M91.3368 29.7026C91.3368 32.1429 95.6333 34.2806 97.4262 35.014C100.314 36.1954 103.395 37.1869 106.547 37.1869C109.987 37.1869 113.237 34.7213 115.909 32.8412C116.902 32.1422 117.763 31.0409 118.618 30.1854C119.184 29.62 119.817 29.0049 120.067 28.254" stroke="#F3F3F3" stroke-width="3" stroke-linecap="round"/>
<path d="M78.0581 44.1884C78.0581 46.0055 76.9034 46.6579 75.8852 47.9306C75.3666 48.5789 74.7051 48.2394 75.2951 49.1512C76.1965 50.5443 77.5558 51.5664 78.541 52.8799" stroke="#F3F3F3" stroke-width="3" stroke-linecap="round"/>
<path d="M63.0894 62.5372C63.0894 63.4659 64.287 64.213 64.9672 64.71C66.4261 65.7762 67.9728 66.647 69.5543 67.6072C72.8317 69.597 77.2707 69.2972 80.9552 69.2972C85.2543 69.2972 89.6164 69.415 93.2146 66.8829C94.424 66.0319 95.2919 64.8397 96.4605 63.9858C96.9157 63.6531 97.614 63.125 97.614 62.5372" stroke="#F3F3F3" stroke-width="3" stroke-linecap="round"/>
<path d="M8.82107 94.8909C8.82107 93.3934 8.46947 92.0347 8.1605 90.6444C8.0191 90.0081 7.86397 89.3957 7.67414 88.7788C7.48177 88.1536 7.48635 87.3799 7.22408 86.7898C6.96937 86.2167 6.73046 85.2623 6.73046 84.6339C6.73046 83.8338 6.33847 83.022 6.33847 82.2021C6.33847 80.6474 6.07715 79.0976 6.07715 77.5127" stroke="#F3F3F3" stroke-width="3" stroke-linecap="round"/>
<path d="M6.07723 77.5127C6.07723 73.7771 5.75382 69.8429 6.21515 66.1523C6.60346 63.0458 7.69824 59.6364 9.08248 56.868" stroke="#F3F3F3" stroke-width="3" stroke-linecap="round"/>
<path d="M9.00635 55.8918C9.03685 55.6173 9.33417 55.2749 9.46151 55.0202C9.62202 54.6992 9.756 54.403 9.92152 54.105C10.3027 53.4189 10.5369 52.6878 10.8561 51.9696C11.2313 51.1253 11.4123 50.1733 11.7955 49.3113C12.2052 48.3893 12.4592 47.4033 12.8414 46.4592C13.2129 45.5413 13.624 44.5993 14.1052 43.733C14.4712 43.0743 14.7801 42.3327 15.2818 41.7719C15.7716 41.2246 16.1401 40.5266 16.5021 39.8932C16.8484 39.287 17.4252 38.7926 17.7223 38.1984" stroke="#F3F3F3" stroke-width="3" stroke-linecap="round"/>
<path d="M17.7224 38.2855C17.7224 37.4559 18.4364 36.9256 18.9426 36.3002C19.2596 35.9087 19.6554 35.6108 19.9886 35.2301C20.1479 35.0481 20.2474 34.7683 20.4437 34.6248C20.6267 34.4911 20.7828 34.362 20.9086 34.1697C21.8276 32.7642 23.0386 31.546 23.9979 30.1603C25.0922 28.5797 26.3045 26.9144 27.678 25.5409C28.2208 24.998 28.7672 24.5084 29.3147 23.9914C29.8987 23.4397 30.519 22.7509 31.2322 22.3547C31.827 22.0242 32.3079 21.4029 32.8882 21.0957C33.4657 20.79 33.7459 20.1041 34.2828 19.7883C34.6013 19.6009 34.8268 19.2925 35.1108 19.0717C35.323 18.9066 35.5629 18.7666 35.7645 18.5875C36.1541 18.2411 36.6999 17.9516 37.159 17.6965C38.5176 16.9417 39.744 16.0671 41.0134 15.1882C42.0144 14.4952 43.0477 13.968 44.3061 13.968" stroke="#F3F3F3" stroke-width="3" stroke-linecap="round"/>
<path d="M43.7831 13.7937C44.0839 13.7937 44.8251 13.3618 45.0469 13.14C45.5029 12.684 46.2117 12.5 46.7078 12.0941C47.0311 11.8295 47.4638 11.6724 47.8118 11.4404C48.1822 11.1934 48.5684 11.0021 48.9594 10.7915C49.6382 10.426 50.4283 10.0916 51.0609 9.65361C51.9633 9.02886 53.0946 8.44551 54.1163 8.06052C55.5142 7.53381 56.8439 6.92038 58.3097 6.62723C59.2966 6.42985 60.2705 5.98681 61.2828 5.94932C61.8761 5.92735 62.3914 5.6662 62.8711 5.42636" stroke="#F3F3F3" stroke-width="3" stroke-linecap="round"/>
<path d="M61.8252 5.60065C63.0207 5.60065 64.1509 5.40026 65.3116 5.33917C65.6738 5.32011 66.1194 5.20311 66.464 5.09706C66.6899 5.02756 66.9776 5.06248 67.1855 4.94696C67.3875 4.83473 67.9104 4.72906 68.1443 4.72906C68.4271 4.72906 68.6826 4.55474 68.9723 4.55474C69.5355 4.55474 70.1056 4.38042 70.6671 4.38042C71.546 4.38042 72.4772 4.254 73.3593 4.13831C74.0515 4.04753 74.7513 4.17384 75.4415 4.05115C76.0176 3.94873 76.6685 4.03178 77.2525 4.03178C78.2112 4.03178 79.17 4.03178 80.1287 4.03178C80.9826 4.03178 81.8364 4.03178 82.6903 4.03178C83.2186 4.03178 83.7144 4.18646 84.2446 4.2061C84.8424 4.22824 85.4167 4.38042 86.0168 4.38042C86.7561 4.38042 87.4953 4.38042 88.2346 4.38042C89.8558 4.38042 91.4577 4.55025 93.009 5.0099C94.2384 5.37417 95.4929 5.51349 96.7762 5.51349" stroke="#F3F3F3" stroke-width="3" stroke-linecap="round"/>
<path d="M96.166 5.94931C97.1795 5.94931 98.0175 6.00675 98.9745 6.38511C99.999 6.79014 101.066 7.32125 102.132 7.60534C102.859 7.79929 103.535 8.24963 104.272 8.45757C104.834 8.61619 105.474 8.75086 106.015 8.96116C107.206 9.42443 108.441 9.74987 109.589 10.3073C111.412 11.1929 113.341 11.8884 115.123 12.8785C115.873 13.2952 116.645 13.5981 117.389 14.0116C118.098 14.405 118.919 14.9281 119.699 15.1882" stroke="#F3F3F3" stroke-width="3" stroke-linecap="round"/>
<path d="M119.525 15.4497C120.199 15.4497 120.967 16.1336 121.442 16.5828C121.775 16.8973 122.135 17.188 122.45 17.5028C122.774 17.8268 123.276 18.1088 123.515 18.5003C123.838 19.0294 124.659 19.2797 125.06 19.769C125.439 20.2327 126.1 20.6902 126.614 21.0086C127.601 21.6196 128.488 22.393 129.413 23.0713C129.865 23.4031 130.274 23.7796 130.681 24.1657C131.117 24.5785 131.521 25.144 131.989 25.5118C132.516 25.9263 132.927 26.4985 133.403 26.9742C133.754 27.3251 134.204 27.6704 134.473 28.0879C134.774 28.5557 135.267 28.992 135.649 29.3953C136.064 29.8324 136.298 30.4191 136.691 30.877C137.016 31.2571 137.246 31.7139 137.673 32.01C137.85 32.132 138.36 32.3766 138.439 32.533" stroke="#F3F3F3" stroke-width="3" stroke-linecap="round"/>
<path d="M137.044 31.4871C137.044 32.3157 137.806 33.2606 138.225 33.9324C138.729 34.7385 139.343 35.4871 139.872 36.2809C140.3 36.9228 140.814 37.5229 141.358 38.0676C141.754 38.4636 142.229 39.0101 142.443 39.5445C142.746 40.3031 143.301 41.0705 143.755 41.7526C144.201 42.4214 144.627 43.0747 145.019 43.7718C145.432 44.5065 145.785 45.1933 146.128 45.9556C146.245 46.2152 146.274 46.4826 146.389 46.74C146.495 46.9746 146.823 47.5382 146.37 47.1758" stroke="#F3F3F3" stroke-width="3" stroke-linecap="round"/>
<path d="M146.196 46.3914C146.196 47.4229 146.944 48.2761 147.397 49.1805C147.977 50.3413 148.712 51.411 149.116 52.6669C149.622 54.242 149.902 55.8056 150.244 57.4171C150.431 58.3015 150.653 59.1694 150.835 60.0561C150.879 60.2743 151.338 61.5139 151.251 61.5572" stroke="#F3F3F3" stroke-width="3" stroke-linecap="round"/>
<path d="M150.902 61.8187C150.902 62.5974 151.107 63.2226 151.377 63.9541C151.669 64.746 151.877 65.575 152.142 66.3703C152.476 67.3724 152.733 68.6503 152.733 69.7018C152.733 70.9649 153.081 72.2308 153.081 73.4932C153.081 74.7411 153.343 75.989 153.343 77.2459C153.343 78.3528 153.382 79.4646 153.26 80.558C153.146 81.5901 152.986 82.6872 152.713 83.6957C152.466 84.6104 152.332 85.5958 152.035 86.4849" stroke="#F3F3F3" stroke-width="3" stroke-linecap="round"/>
<path d="M151.861 86.3105C151.861 87.0647 151.687 87.787 151.687 88.5283C151.687 88.8154 151.599 89.2013 151.532 89.487C151.445 89.8579 151.504 90.2639 151.382 90.6298C150.858 92.2019 150.588 93.8388 150.011 95.3945C149.755 96.088 149.51 96.7805 149.208 97.4718C148.897 98.1826 148.789 98.9914 148.414 99.6896C148.195 100.096 147.876 100.684 147.852 101.128C147.825 101.605 147.503 102.049 147.503 102.522" stroke="#F3F3F3" stroke-width="3" stroke-linecap="round"/>
<path d="M126.431 131.142C126.373 131.607 125.519 132.054 125.197 132.375C124.862 132.71 124.552 132.996 124.202 133.311C123.601 133.852 122.733 134.136 122.164 134.706C121.496 135.373 120.435 135.636 119.78 136.291C119.315 136.756 118.646 137.193 118.057 137.525C117.603 137.78 116.918 138.177 116.537 138.52C115.889 139.104 114.956 139.341 114.177 139.641C113.3 139.978 112.365 140.42 111.519 140.821C110.744 141.188 109.925 141.511 109.159 141.894C108.755 142.095 108.299 142.224 107.919 142.466C107.614 142.66 107.065 142.731 106.906 143.05" stroke="#F3F3F3" stroke-width="3" stroke-linecap="round"/>
<path d="M107.442 142.513C105.7 142.513 104.105 143.478 102.484 144.039C101.673 144.32 100.811 144.573 100.04 144.897C99.3178 145.202 98.3448 145.533 97.5665 145.631C97.0185 145.699 96.4006 146.041 95.8559 146.185C95.3437 146.32 94.8486 146.487 94.348 146.644C93.898 146.784 93.4288 146.912 92.9593 146.912C92.7971 146.912 91.9656 146.974 91.8865 147.073C91.6878 147.321 90.749 147.183 90.4322 147.258C90.0056 147.358 89.5833 147.466 89.1508 147.562C88.6901 147.664 88.2268 147.852 87.7621 147.961C87.2636 148.078 86.6545 148.08 86.2006 148.307" stroke="#F3F3F3" stroke-width="3" stroke-linecap="round"/>
<path d="M86.5224 147.878C86.494 147.65 84.2549 147.77 83.9536 147.77C82.9717 147.77 82.0538 148.163 81.0749 148.199C80.2277 148.231 79.3772 148.521 78.53 148.521C77.6975 148.521 76.8651 148.521 76.0327 148.521C74.4155 148.521 72.7983 148.521 71.1812 148.521C70.7441 148.521 70.307 148.521 69.8699 148.521C69.4521 148.521 68.7342 148.508 68.3501 148.36C68.0136 148.231 67.5199 148.167 67.1581 148.086C66.8213 148.011 66.4923 147.878 66.1389 147.878" stroke="#F3F3F3" stroke-width="3" stroke-linecap="round"/>
<path d="M29.234 128.352C29.5791 128.391 30.244 128.981 30.4975 129.234C30.851 129.588 31.2862 129.845 31.5942 130.23C31.9208 130.638 32.5976 130.879 32.9889 131.249C33.3575 131.597 33.7202 131.967 34.1153 132.274C35.1346 133.067 36.2857 133.795 37.2265 134.735C37.6094 135.118 38.1589 135.284 38.5675 135.647C39.0336 136.062 39.6715 136.517 40.2363 136.774C41.3153 137.264 42.2283 138.038 43.2879 138.568C44.4464 139.147 45.567 139.707 46.7209 140.284C47.8046 140.826 48.9629 141.197 50.0467 141.739C50.5438 141.987 51.1796 142.109 51.6082 142.46C51.8671 142.672 52.3579 142.932 52.681 143.05C53.2245 143.247 53.6458 143.801 54.2306 143.801" stroke="#F3F3F3" stroke-width="3" stroke-linecap="round"/>
<path d="M54.2306 143.801C55.1913 143.801 56.3013 144.041 57.0438 144.635C57.4544 144.964 58.1002 145.092 58.5755 145.356C58.9709 145.576 59.8017 146.018 60.2622 146.054C61.5704 146.154 62.806 147.243 64.1243 147.341C64.7067 147.384 65.2776 147.663 65.8707 147.663C66.524 147.663 67.0698 147.82 67.4262 148.414" stroke="#F3F3F3" stroke-width="3" stroke-linecap="round"/>
</svg>
