<svg width="169" height="159" viewBox="0 0 169 159" fill="none" xmlns="http://www.w3.org/2000/svg">
<path d="M35.5753 58.3749C35.5753 55.6256 35.878 53.8876 37.6298 51.6978C39.673 49.1438 42.4577 47.2523 44.8205 45.0207C47.0292 42.9348 49.2478 41.5964 52.0302 40.3791C55.3057 38.9461 59.624 37.4876 63.2348 37.4876C68.0235 37.4876 72.8642 36.4604 77.6923 36.4604C82.9811 36.4604 88.6385 36.5309 93.4433 38.9334C95.6844 40.0539 97.8383 41.3054 99.778 42.8141C100.732 43.556 101.658 44.3325 102.517 45.1919C103.29 45.9642 104.823 46.8616 105.352 47.76C106.376 49.5018 107.641 51.1952 108.681 53.0675C109.666 54.8416 110.664 56.4593 111.515 58.3749C115.088 66.413 117.539 75.125 113.722 83.7136C112.007 87.5732 110.522 91.4832 108.586 95.3556C106.462 99.6036 102.965 102.764 99.6829 106.047C98.0595 107.67 94.9601 108.095 92.9297 109.223C90.9569 110.319 87.4786 111.324 85.2254 111.449C83.2 111.562 81.2664 112.476 79.2331 112.476C76.8933 112.476 74.5535 112.476 72.2136 112.476C70.058 112.476 67.0575 113.032 65.0229 112.305C62.6983 111.475 59.46 111.488 57.4898 109.737C55.3215 107.81 52.0488 106.982 49.7665 105.114C48.8806 104.39 47.6354 103.646 46.6847 103.041C45.5065 102.291 44.6165 101.254 43.4508 100.568C41.1323 99.2041 38.0261 94.517 37.2874 91.9315C36.7622 90.0935 35.494 88.4089 35.2519 86.4719C35.0622 84.9542 34.6295 83.3329 34.2817 81.8113C33.5671 78.6847 34.2056 74.766 34.2056 71.5578C34.2056 68.8343 36.2601 66.1448 36.2601 63.5111" stroke="#EA8777" stroke-width="64" stroke-linecap="round"/>
<path d="M74.8894 76.8699C74.9315 77.2483 78.024 82.1385 75.1994 78.5436C73.3126 76.1423 69.7564 74.3026 68.7524 71.2908" stroke="#EA8777" stroke-width="64" stroke-linecap="round"/>
<path d="M137.512 102.737C137.643 101.688 139.192 101.002 140.029 100.723" stroke="#CA8FC9" stroke-width="48" stroke-linecap="round"/>
<path d="M144.457 149.938C145.937 149.642 147.825 147.641 148.834 146.632C149.956 145.51 151.199 144.573 152.308 143.464C154.583 141.189 157.341 138.951 160.159 137.542" stroke="#ACCA9F" stroke-width="17" stroke-linecap="round"/>
<path d="M116.911 135.062C119.294 135.062 121.096 137.044 122.695 138.644C124.203 140.151 125.574 141.797 127.103 143.326C128.343 144.567 129.584 145.807 130.822 147.045C131.782 148.006 132.581 149.182 133.714 149.938" stroke="#ACCA9F" stroke-width="17" stroke-linecap="round"/>
<path d="M131.331 117.222C126.703 117.222 122.343 118.544 117.695 118.544C112.471 118.544 108.963 115.088 110.717 109.388C111.814 105.822 117.111 105.764 120.094 105.764C121.609 105.764 122.652 107.1 122.077 105.52C121.396 103.647 120.025 101.8 119.213 99.8641C118.388 97.8988 117.869 96.156 117.45 94.0618C117.137 92.4999 116.305 87.4758 118.111 86.4723C120.12 85.356 122.825 85.8112 124.721 86.8151C125.706 87.3364 126.698 88.0917 127.561 88.7981C128 89.1569 128.687 90.6378 128.687 90.0712C128.687 87.721 127.806 85.3055 127.806 82.849C127.806 77.1059 136.626 72.446 141.124 76.7774C143.745 79.3012 143.8 81.982 145.335 85.0524C145.472 85.3267 145.717 84.6032 145.972 84.171C146.632 83.0478 148.02 82.6209 149.154 82.2124C154.77 80.1907 163.501 79.0619 163.501 87.8678C163.501 89.148 163.405 91.0258 161.738 91.2219C160.781 91.3345 160.037 91.6626 158.996 91.6626C157.324 91.6626 158.415 91.9022 159.094 92.5439C161.349 94.6738 162.422 96.9138 163.305 99.8152C164.117 102.483 165.193 106.667 164.333 109.461C163.787 111.238 160.869 111.934 159.29 111.934C156.658 111.934 156.071 110.901 157.772 113.452C159.944 116.71 159.174 122.704 154.247 122.951C151.965 123.065 149.862 123.148 148.322 121.188C147.018 119.529 145.786 117.592 147.416 120.527C148.802 123.021 139.913 124.099 138.382 123.294C136.258 122.176 135.339 120.586 134.318 118.544C133.834 117.576 133.457 114.176 134.416 113.697" stroke="#F3F3F3" stroke-width="3" stroke-linecap="round"/>
<path d="M138.382 113.697C135.858 113.697 135.691 113.634 134.073 111.836C132.758 110.374 133.094 108.218 133.094 106.425C133.094 102.176 136.09 101.798 139.704 101.798C141.335 101.798 142.808 101.401 143.572 103.12C144.146 104.411 144.493 106.742 144.086 108.164C143.829 109.065 142.096 110.045 141.467 110.832C140.546 111.983 138.733 112.435 137.501 113.256" stroke="#F3F3F3" stroke-width="3" stroke-linecap="round"/>
<path d="M137.501 113.256C137.501 120.383 138.382 126.999 138.382 134.188C138.382 141.313 138.382 148.437 138.382 155.561" stroke="#F3F3F3" stroke-width="3" stroke-linecap="round"/>
<path d="M138.382 155.561C136.84 155.561 135.297 155.561 133.755 155.561C131.906 155.561 130.28 154.148 128.491 153.823C125.337 153.249 123.288 149.479 120.975 147.629C116.321 143.906 114.786 136.512 112.48 131.324C111.505 129.13 118.691 129.561 120.094 129.561C123.285 129.561 126.169 132.31 128.907 133.527C131.867 134.843 134.379 139.254 135.983 141.802C137.642 144.437 138.382 147.11 138.382 150.273" stroke="#F3F3F3" stroke-width="3" stroke-linecap="round"/>
<path d="M138.382 150.273C138.382 148.51 138.428 146.78 139.484 145.254C140.256 144.139 142.201 141.462 142.348 140.137C142.671 137.229 147.255 133.739 149.619 132.426C152.656 130.739 156.449 129.12 159.975 129.12C161.47 129.12 163.009 128.68 164.603 128.68C166.746 128.68 166.586 129.061 166.586 131.103C166.586 139.153 161.633 144.894 156.352 150.175C154.517 152.01 149.673 153.028 147.196 153.382C143.805 153.867 141.04 154.68 137.501 154.68" stroke="#F3F3F3" stroke-width="3" stroke-linecap="round"/>
<path d="M132.948 119.301C132.558 119.35 131.192 121.205 130.822 121.616C129.909 122.63 128.967 123.623 127.994 124.596C126.145 126.445 124.527 128.444 122.358 129.891" stroke="#F3F3F3" stroke-width="3" stroke-linecap="round"/>
<path d="M50.961 102.904C50.961 108.946 50.1202 115.103 52.5931 120.667C53.5754 122.877 54.7524 125.099 55.7435 127.329C56.8112 129.731 59.3044 131.364 61.0575 133.117C62.8377 134.897 65.6702 135.663 67.9656 136.457C70.2335 137.242 72.1428 138.45 74.5321 138.792C79.1049 139.445 83.4479 139.797 88.1966 139.797" stroke="#F3F3F3" stroke-width="3" stroke-linecap="round"/>
<path d="M88.1966 139.797C87.94 141.85 86.8159 144.348 87.7032 146.63C88.159 147.802 89.3866 148.361 90.4361 148.66C91.7391 149.033 91.9738 147.972 92.5616 147.237C93.4225 146.161 91.8466 145.256 93.6624 146.971C94.6138 147.87 96.635 148.77 97.9135 149.002C100.576 149.486 103.825 149.834 104.575 146.459C104.925 144.883 103.881 144.167 103.227 143.024C102.842 142.349 102.464 142.53 103.569 142.53C104.598 142.53 105.909 142.751 106.909 142.454C109.831 141.589 111.085 139.755 111.085 136.723C111.085 134.176 106.251 135.863 109.528 133.99C110.954 133.176 113.767 127.725 111.578 126.475C110.401 125.802 109.535 125.791 108.2 125.791C107.684 125.791 107.158 125.761 106.644 125.791C105.988 125.83 106.559 125.868 106.644 125.108C106.773 123.94 107.355 122.892 106.72 121.692C106.354 121.002 104.294 121.35 103.569 121.35C100.38 121.35 98.6676 123.125 96.0537 124.501C93.4804 125.855 91.2353 125.791 88.3484 125.791C86.4235 125.791 83.0828 125.864 81.687 124.235C80.1956 122.495 77.1802 122.037 75.8986 119.794C75.4112 118.941 73.9736 118.014 73.1847 117.422C72.2105 116.691 71.618 115.217 71.0401 114.177C70.0338 112.365 68.5812 110.815 67.7 109.052" stroke="#F3F3F3" stroke-width="3" stroke-linecap="round"/>
<path d="M63.9421 58.8357C64.2405 63.9085 72.9915 66.627 76.9993 66.6927C80.1401 66.7442 81.7498 65.4893 84.0972 63.6942C85.804 62.389 88.5381 59.4092 88.5381 57.1276" stroke="#F3F3F3" stroke-width="3" stroke-linecap="round"/>
<path d="M105.96 52.0035C107.352 52.1775 109.065 53.8146 110.477 54.3188C113.513 55.403 116.3 57.1276 119.625 57.1276C125.848 57.1276 129.225 51.1788 130.556 45.8545" stroke="#F3F3F3" stroke-width="3" stroke-linecap="round"/>
<path d="M101.178 71.8169C103.804 71.8169 103.826 74.2771 105.448 75.5746C106.102 76.0977 106.025 77.2948 105.201 77.5484C104.212 77.8528 103.061 77.9576 102.544 78.9907" stroke="#F3F3F3" stroke-width="3" stroke-linecap="round"/>
<path d="M90.9294 94.7048C94.6446 98.42 99.4113 99.829 104.594 99.829C109.087 99.829 113.134 96.5098 113.134 91.972" stroke="#F3F3F3" stroke-width="3" stroke-linecap="round"/>
<path d="M53.8286 4.88279C55.399 4.88279 56.7485 4.28074 58.1877 3.78257C59.6271 3.28432 61.111 2.85417 62.5746 2.40383C62.8893 2.30698 63.2422 2.47154 63.5077 2.27849C63.6281 2.19089 64.5596 2.12529 64.7332 2.12529C65.6056 2.12529 66.4763 1.74927 67.3654 1.74927C68.2667 1.74927 69.1269 1.49859 70.0533 1.49859C70.8285 1.49859 71.6038 1.49859 72.379 1.49859C73.2105 1.49859 74.1413 1.45151 74.9485 1.63089C75.3753 1.72573 75.8274 1.80519 76.2646 1.86765C76.7191 1.93258 77.3078 1.89458 77.7408 2.02781C78.6276 2.30066 79.7784 2.37597 80.7142 2.37597C81.5355 2.37597 82.3615 2.62666 83.1862 2.62666C84.0121 2.62666 84.9309 2.81863 85.7278 2.99571C86.589 3.18708 87.5849 3.07148 88.4226 3.40655C89.9486 4.01693 91.7512 4.11222 93.3109 4.6321" stroke="#F3F3F3" stroke-width="3" stroke-linecap="round"/>
<path d="M93.1855 4.63211C94.4563 4.63211 95.6673 4.99559 96.8831 5.26578C97.5063 5.40426 98.2243 5.48267 98.8259 5.69751C99.4588 5.92355 100.316 6.00318 100.894 6.32421C103.341 7.68386 105.963 8.82053 108.477 10.0775C109.911 10.7942 111.284 11.6927 112.676 12.4659C114.36 13.4013 116.077 14.2709 117.745 15.2095C119.047 15.9414 120.357 16.6357 121.638 17.389C122.146 17.6878 122.823 18.599 123.393 18.6703C123.628 18.6996 124.897 19.8093 124.897 19.673" stroke="#F3F3F3" stroke-width="3" stroke-linecap="round"/>
<path d="M124.897 19.673C124.897 20.3293 126.371 21.0958 126.777 21.56C127.5 22.3868 128.289 23.0657 129.061 23.8371C130.22 24.9962 131.158 26.4361 132.16 27.7505C132.965 28.8073 134.092 30.0488 134.611 31.26C134.845 31.8072 135.294 32.3073 135.62 32.8059C136.022 33.4194 136.401 34.1478 136.832 34.686C137.441 35.4467 137.853 36.341 138.378 37.1649C138.675 37.632 138.878 38.1661 139.186 38.6273C139.536 39.1533 139.797 39.8944 140.188 40.3542C140.373 40.5718 141.602 42.8434 141.567 42.861" stroke="#F3F3F3" stroke-width="3" stroke-linecap="round"/>
<path d="M141.417 42.9841C141.456 43.329 141.975 43.765 142.206 44.0093C142.476 44.2949 142.583 44.6699 142.837 44.9556C143.077 45.2259 143.228 45.6603 143.406 45.9808C143.638 46.3979 143.867 46.815 144.081 47.2425C144.882 48.8449 145.71 50.4869 146.167 52.2106C146.437 53.2338 146.818 54.2385 147.034 55.2686C147.122 55.6911 147.235 56.1519 147.393 56.5478C147.611 57.0934 147.613 57.7756 147.788 58.3441C147.998 59.0271 148.12 59.7794 148.12 60.4908C148.12 61.1301 148.436 61.7453 148.436 62.3834" stroke="#F3F3F3" stroke-width="3" stroke-linecap="round"/>
<path d="M148.436 62.4622C148.436 63.7682 148.684 65.0755 148.97 66.3263C149.187 67.2727 149.146 68.4134 149.146 69.3843C149.146 70.316 149.146 71.2477 149.146 72.1794C149.146 72.7124 149.146 73.2455 149.146 73.7785C149.146 74.1833 148.988 74.6016 148.988 75.0183C148.988 75.8013 148.731 76.5438 148.672 77.3052C148.565 78.7074 147.963 80.029 147.963 81.4672" stroke="#F3F3F3" stroke-width="3" stroke-linecap="round"/>
<path d="M86.1683 144.393C85.3622 144.393 84.6503 144.73 83.8938 144.772C83.2039 144.81 82.2487 144.843 81.6193 145.123C81.1287 145.341 79.8876 145.249 79.3448 145.278C78.4979 145.322 77.6376 145.278 76.7895 145.278C73.3828 145.278 70.079 144.933 66.7086 144.772C65.0921 144.695 63.5058 144.14 61.9068 144.14C61.0682 144.14 60.2607 143.888 59.4077 143.888C58.6961 143.888 58.0519 143.421 57.3578 143.382C56.1275 143.314 55.0339 142.506 53.8197 142.371C53.2791 142.311 52.4883 141.954 52.0787 141.585C51.7485 141.288 51.3911 140.729 50.9133 140.729" stroke="#F3F3F3" stroke-width="3" stroke-linecap="round"/>
<path d="M7.69751 100.419C8.38668 101.194 8.56686 102.295 9.24193 103.045C9.6685 103.519 9.85654 104.272 10.1265 104.842C10.3706 105.357 10.6202 105.889 10.8566 106.421C11.13 107.037 11.44 107.638 11.6849 108.268C11.8359 108.656 12.223 109.877 12.5624 110.149C12.8227 110.357 13.2331 111.263 13.3838 111.602C13.6121 112.116 13.9826 112.54 14.2403 113.055C14.7717 114.118 16.0679 115.164 16.8939 115.99C17.7505 116.846 18.2856 117.957 19.1333 118.805C20.7655 120.437 21.8421 122.524 23.4928 124.175" stroke="#F3F3F3" stroke-width="3" stroke-linecap="round"/>
<path d="M23.4928 124.175C23.4928 124.664 24.516 125.694 24.953 125.944C25.7026 126.373 26.2626 127.458 26.9607 128.029C27.3783 128.371 27.7337 128.795 28.105 129.166C28.4602 129.522 29.0533 129.869 29.3054 130.311C29.6933 130.989 30.8584 131.228 31.2009 131.827C31.5352 132.412 32.6247 132.795 33.1244 133.245C33.5182 133.6 34.1537 133.875 34.6127 134.13C35.0873 134.393 35.6031 134.772 36.1009 134.944C36.6494 135.134 37.0183 135.522 37.519 135.772C37.9538 135.99 38.4125 136.187 38.8107 136.432C39.1987 136.671 39.6551 136.792 40.0462 136.966C40.224 137.045 41.2662 137.471 40.8044 137.317" stroke="#F3F3F3" stroke-width="3" stroke-linecap="round"/>
<path d="M40.8044 137.317C41.4774 137.317 41.9611 137.547 42.5033 137.892C43.0693 138.253 43.7642 138.615 44.2794 139.016C45.3416 139.842 46.7933 140.434 48.0071 141.009C48.3343 141.164 48.6954 141.245 49.018 141.388C49.1572 141.45 49.7192 141.605 49.7761 141.676C50.1467 142.139 51.2389 142.033 51.7348 142.308C52.1182 142.521 52.8957 142.726 53.3143 142.75C54.0287 142.792 54.6136 143.129 55.3361 143.129" stroke="#F3F3F3" stroke-width="3" stroke-linecap="round"/>
<path d="M53.5656 5.01712C52.9483 5.01712 52.5275 5.11536 51.946 5.26074C51.3124 5.41914 50.6416 5.93777 50.0737 6.25325C49.7435 6.43674 49.4228 6.76442 49.0541 6.86681C48.7277 6.95748 48.2918 7.14934 47.9985 7.336C47.5889 7.59663 47.0662 7.72091 46.627 7.94053C46.2565 8.12577 45.8517 8.32721 45.4495 8.42777C44.6071 8.63837 43.7034 9.09553 42.9276 9.48344C42.0522 9.92113 41.1373 10.3465 40.2433 10.7376C39.3197 11.1417 38.4706 11.6848 37.6312 12.2444C37.2842 12.4757 36.9257 12.6856 36.5936 12.9347C36.3599 13.1099 35.9175 13.1906 35.7815 13.4625" stroke="#F3F3F3" stroke-width="3" stroke-linecap="round"/>
<path d="M35.7816 13.6249C35.1385 13.6249 34.4031 14.1102 33.9545 14.5588C33.576 14.9373 33.1174 15.2245 32.7364 15.6055C32.3102 16.0316 31.7458 16.4445 31.2521 16.792C30.4635 17.3469 29.7861 18.0692 28.9919 18.6191C28.1476 19.2036 27.3634 19.8298 26.5602 20.4417C25.7392 21.0673 24.7105 21.8719 24.088 22.702C23.2561 23.8111 22.0621 24.6421 21.2052 25.7246C20.8719 26.1456 20.4434 26.527 20.0638 26.9066C19.6522 27.3181 19.3376 27.8084 18.972 28.26C18.6714 28.6314 18.351 29.0026 18.1193 29.4195C17.9675 29.6927 17.9204 30.0224 17.7539 30.2721" stroke="#F3F3F3" stroke-width="3" stroke-linecap="round"/>
<path d="M17.3478 30.5158C17.299 30.9556 16.5836 31.4635 16.3373 31.8331C15.8152 32.6162 15.2428 33.3578 14.7086 34.1294C13.6332 35.6828 12.6351 37.3621 11.7627 39.0424C11.4854 39.5764 11.1538 40.1303 10.8108 40.6259C10.5979 40.9333 10.2229 41.3637 10.1205 41.7222C10.028 42.0458 9.68458 42.4672 9.50695 42.7598C9.30842 43.0868 9.15039 43.4297 8.94302 43.7523C8.48139 44.4704 8.14255 45.4554 7.9099 46.2697C7.62518 47.2662 7.30123 48.3006 6.95348 49.2743C6.66209 50.0902 6.30383 51.0866 6.30383 51.9541" stroke="#F3F3F3" stroke-width="3" stroke-linecap="round"/>
<path d="M5.81661 52.0353C5.65994 52.0549 5.7354 52.7788 5.7354 52.9286C5.7354 53.3047 5.53975 53.7463 5.41058 54.1015C5.28846 54.4374 5.2192 54.8484 5.04515 55.1617C4.83004 55.5489 4.86622 56.0204 4.69777 56.4204C4.5396 56.7961 4.58135 57.2711 4.41806 57.6385C4.22558 58.0716 4.09273 58.6301 4.02557 59.1002C3.80794 60.6236 3.38337 62.1272 3.29923 63.6838C3.26401 64.3354 3.1576 65.0597 3.03756 65.705C2.95078 66.1714 2.96035 66.6332 2.88869 67.099C2.80569 67.6384 2.81199 68.1703 2.81199 68.7231C2.81199 69.0819 2.73079 69.4197 2.73079 69.7788C2.73079 70.1392 2.77735 70.5378 2.71274 70.8931C2.58087 71.6184 2.64958 72.3922 2.64958 73.1308C2.64958 73.6399 2.56837 74.1341 2.56837 74.6511C2.56837 75.194 2.56837 75.7369 2.56837 76.2798C2.56837 76.8152 2.48142 77.4355 2.64958 77.94" stroke="#F3F3F3" stroke-width="3" stroke-linecap="round"/>
<path d="M2.40601 78.1836C2.40601 79.5714 3.06289 80.8068 3.21355 82.1627C3.25122 82.5017 3.34501 82.904 3.47973 83.2184C3.70123 83.7352 3.69976 84.3178 3.9038 84.8425C4.08921 85.3192 4.25245 86.0654 4.27374 86.5658C4.29867 87.1517 4.54565 87.772 4.66172 88.3524C4.92137 89.6506 5.23638 90.9445 5.47378 92.2503C5.62587 93.0867 5.87535 93.947 5.97455 94.7902C6.08912 95.764 6.43798 96.8765 6.87684 97.7542C7.06611 98.1328 7.30307 98.5655 7.42272 98.9723C7.52112 99.3068 7.68346 100.109 8.00921 100.272" stroke="#F3F3F3" stroke-width="3" stroke-linecap="round"/>
</svg>
