<svg width="190" height="200" viewBox="0 0 190 200" fill="none" xmlns="http://www.w3.org/2000/svg">
<path d="M81.1831 70.684C81.1831 69.2827 82.7565 65.1569 83.5984 64.1045C84.7253 62.6959 87.7347 58.9421 87.9291 57.192C88.1514 55.1916 90.9178 52.9441 91.8435 51.1955C93.1035 48.8156 94.0477 46.5262 95.4247 44.1164C100.416 35.3819 114.354 36.2044 123.158 36.2044C126.803 36.2044 132.265 39.9193 134.985 42.3674C139.424 46.3629 141.681 50.2074 144.521 55.3181C149.641 64.5338 154.244 76.6344 149.559 87.1742C146.402 94.2787 139.369 104.414 130.279 104.414C125.446 104.414 121.346 107.412 116.787 107.412C111.73 107.412 106.871 109.214 101.421 108.911C97.4539 108.691 90.7781 103.182 88.0957 100.5C86.2269 98.6309 84.3811 96.7018 82.5157 94.8364C80.9339 93.2546 80.2159 90.7479 78.5597 89.4229C75.7304 87.1595 76.6858 78.2973 76.6858 74.8066C76.6858 71.1884 75.3741 61.9704 78.9345 60.1902" stroke="#EA8777" stroke-width="64" stroke-linecap="round"/>
<path d="M114.913 65.4371C114.913 63.1884 114.913 69.9344 114.913 72.1831" stroke="#EA8777" stroke-width="64" stroke-linecap="round"/>
<path d="M35.3141 131.466C33.4419 131.466 31.8318 134.706 30.584 135.954C28.9034 137.635 27.6764 139.832 25.9752 141.533C24.2641 143.244 23.3718 145.51 21.8515 147.368C20.23 149.35 19.0904 151.858 17.4987 153.904C15.9362 155.913 14.8365 158.315 13.2942 160.332C12.1784 161.791 10.9494 163.856 10.3295 165.561C9.99743 166.474 9.51065 167.863 8.87405 168.579C8.00047 169.562 7.45879 171.175 6.81222 172.339C6.37714 173.122 5.83761 173.863 5.42418 174.644C4.50771 176.375 3.20236 178.317 2.56726 180.223" stroke="#F3F3F3" stroke-width="3" stroke-linecap="round"/>
<path d="M1.8396 181.921C4.01413 181.921 6.1517 181.678 8.33505 181.678C10.9564 181.678 13.8726 181.53 16.3937 180.829C18.4229 180.266 21.0135 180.465 23.1318 180.465C25.0696 180.465 27.2521 180.208 29.1151 180.829C32.46 181.944 35.1906 183.685 38.2249 185.371C39.3356 185.988 39.8154 187.462 40.7719 188.228C41.6177 188.904 41.8652 190.412 42.8337 190.896" stroke="#F3F3F3" stroke-width="3" stroke-linecap="round"/>
<path d="M42.8337 190.896C44.3504 190.896 46.0846 189.439 47.4291 188.834C48.7748 188.228 50.0248 187.452 51.4449 187.015C54.2176 186.162 57.1093 184.589 60.0427 184.589C61.7119 184.589 63.41 184.131 65.0962 184.104C66.9728 184.074 68.8523 184.104 70.7292 184.104C72.3302 184.104 73.9599 184.315 75.5266 184.643C76.6703 184.882 77.8623 185.685 78.9765 185.802C79.8669 185.896 81.0947 186.726 81.8873 187.122C83.0619 187.71 84.3529 188.084 85.5393 188.618C86.8051 189.188 88.1331 190.046 89.2991 190.788C90.2002 191.361 91.2582 191.709 92.1965 192.23C93.5733 192.995 95.5294 193.508 96.684 194.534C97.1949 194.988 100.541 197.336 99.8374 197.688" stroke="#F3F3F3" stroke-width="3" stroke-linecap="round"/>
<path d="M105.416 180.708C105.416 182.336 104.336 183.312 103.772 184.778C103.098 186.531 101.873 188.563 100.821 190.141C100.318 190.896 99.9282 191.776 99.5409 192.594C99.3217 193.056 98.859 194.25 98.5032 194.534C97.9782 194.954 97.1691 197.053 97.1691 197.688" stroke="#F3F3F3" stroke-width="3" stroke-linecap="round"/>
<path d="M126.678 127.031C126.678 131.239 126.978 135.356 126.978 139.544C126.978 141.739 126.4 144.725 125.331 146.649C124.405 148.316 123.192 149.694 122.252 151.292C121.517 152.542 119.326 153.661 117.992 154.137C116.423 154.698 114.623 155.994 112.9 156.084C110.817 156.194 105.314 156.787 104.214 154.587" stroke="#F3F3F3" stroke-width="3" stroke-linecap="round"/>
<path d="M104.214 154.587C106.234 154.587 105.712 151.381 105.712 150.094C105.712 148.276 103.453 147.997 101.968 147.997C101.24 147.997 100.493 148.598 100.254 149.262C100.087 149.725 100.252 151.56 99.9545 151.825C99.7846 151.976 96.5758 150.793 96.1273 150.693C95.072 150.458 93.0286 149.937 92.0838 150.693C91.2866 151.331 91.1998 155.976 92.0006 156.617C92.3276 156.878 90.773 156.384 90.0038 156.384C88.5849 156.384 88.3949 157.028 88.7891 158.447C89.1612 159.787 89.7859 160.713 90.7359 161.775C91.0523 162.129 91.2151 162.427 91.5679 162.74C91.7758 162.925 91.5341 162.247 91.335 162.141C89.3529 161.092 88.0403 162.558 88.0403 164.321C88.0403 165.569 88.7834 166.279 89.6044 167.1C90.3367 167.832 90.6435 167.109 89.4047 166.884C88.7215 166.759 87.7407 166.639 87.7407 167.466C87.7407 168.658 87.6781 169.87 87.7407 171.06C87.8585 173.297 91.9047 176.334 94.0307 176.452C97.1279 176.624 100.336 176.764 103.016 175.187C105.079 173.974 107.17 172.428 109.306 171.36" stroke="#F3F3F3" stroke-width="3" stroke-linecap="round"/>
<path d="M109.306 171.36C114.895 171.36 120.118 171.728 125.181 169.197C127.547 168.014 130.531 167.126 133.118 166.551C135.731 165.97 138.259 163.98 140.456 162.607C142.679 161.218 145.519 157.082 146.147 154.57C147.4 149.56 150.041 144.516 150.041 139.245C150.041 137.32 150.041 135.395 150.041 133.471C150.041 131.727 149.222 130.505 148.543 128.978C147.987 127.726 146.718 126.042 145.781 125.001C145.211 124.367 143.751 123.354 143.751 122.538" stroke="#F3F3F3" stroke-width="3" stroke-linecap="round"/>
<path d="M105.7 181.513C105.7 180.128 106.52 178.911 107.13 177.69C107.633 176.684 108.032 175.537 108.376 174.504" stroke="#F3F3F3" stroke-width="3" stroke-linecap="round"/>
<path d="M101.495 146.976C101.562 146.37 102.445 145.724 102.797 145.263C103.418 144.451 104.016 143.562 104.737 142.842C106.256 141.323 107.17 139.249 108.66 137.702C110.09 136.216 111.188 134.352 112.646 132.894C113.153 132.387 113.128 132.154 113.863 132.384C115.606 132.929 117.149 134.045 118.671 135.025C119.539 135.585 120.414 136.401 121.149 137.135C121.39 137.376 119.593 138.107 119.393 138.254C118.317 139.043 117.043 139.535 115.959 140.286C114.828 141.069 113.641 141.771 112.483 142.516C111.733 142.998 111.076 143.594 110.33 144.074C109.647 144.513 108.576 145.267 108.058 145.9C107.388 146.719 106.319 147.268 105.828 148.251" stroke="#F3F3F3" stroke-width="3" stroke-linecap="round"/>
<path d="M87.9857 172.975C86.1507 174.81 84.1264 176.509 82.4774 178.511C82.2511 178.786 82.0764 179.079 81.8048 179.29C81.32 179.667 81.7341 179.593 82.1304 179.538C83.048 179.41 84.068 179.444 84.9554 179.191C86.1924 178.837 87.5912 178.68 88.7503 178.101C89.4526 177.749 90.6226 176.925 91.4266 176.925" stroke="#F3F3F3" stroke-width="3" stroke-linecap="round"/>
<path d="M113.349 144.511C115.402 144.511 116.908 145.418 117.847 147.296C118.479 148.561 119.243 149.825 120.034 151.01" stroke="#F3F3F3" stroke-width="3" stroke-linecap="round"/>
<path d="M104.25 141.169C103.89 141.123 103.637 140.625 103.321 140.467C102.211 139.912 101.005 139.455 99.8137 139.085C97.1082 138.243 94.7019 136.801 92.066 135.866C89.3795 134.913 86.8504 134.669 84.0192 134.669C82.0148 134.669 79.8928 134.497 77.9428 135.041C74.906 135.887 72.2305 137.374 69.6071 139.043C68.6799 139.633 67.2963 140.833 66.7391 141.808C66.4502 142.314 65.2528 143.211 64.6964 143.397" stroke="#F3F3F3" stroke-width="3" stroke-linecap="round"/>
<path d="M63.9536 143.025C63.9536 142.022 62.7924 141.277 62.0038 140.797C60.4904 139.876 58.9176 139.063 57.3717 138.197C53.5542 136.06 49.8118 133.851 45.7966 132.111C43.5898 131.154 41.509 130.955 39.1425 130.955C37.5574 130.955 36.1542 132.626 34.6135 132.626" stroke="#F3F3F3" stroke-width="3" stroke-linecap="round"/>
<path d="M66.3678 127.798C64.6589 127.798 63.2919 128.81 61.6428 129.139C59.9364 129.481 57.9621 130.079 56.3401 130.728C54.9288 131.293 53.2746 131.224 51.8834 131.842C51.0654 132.206 49.6234 132.441 48.7266 132.441" stroke="#F3F3F3" stroke-width="3" stroke-linecap="round"/>
<path d="M51.5613 75.764C51.5613 76.4095 51.914 76.8333 52.3285 77.3069C53.4708 78.6124 54.4438 79.9581 55.8404 81.0405C58.6756 83.2378 62.1178 86.0218 65.9842 85.3452C69.4235 84.7433 73.663 82.5274 75.3096 79.293C76.0327 77.8727 76.4984 76.299 76.8781 74.7582C77.04 74.1008 77.3384 73.3689 77.3384 72.6953" stroke="#F3F3F3" stroke-width="3" stroke-linecap="round"/>
<path d="M94.5231 69.1663C94.5231 70.0586 95.647 70.9892 96.245 71.5872C97.3226 72.6648 98.7909 73.4231 100.098 74.1785C102.281 75.4404 104.62 76.8356 107.139 77.179C109.493 77.5001 111.955 77.3752 114.205 76.5909C116.802 75.6858 118.865 74.7446 120.837 72.772C121.64 71.9691 122.339 71.0969 122.985 70.1637C123.848 68.917 124.504 67.7856 125.057 66.4045" stroke="#F3F3F3" stroke-width="3" stroke-linecap="round"/>
<path d="M88.9994 85.5839C89.5072 85.6473 87.6616 87.0948 87.4651 87.2717C86.8886 87.7905 86.3479 87.9299 85.8455 88.5759C85.1131 89.5175 86.6165 90.4471 87.2435 91.0308C87.9113 91.6526 88.5977 92.2753 89.2211 92.9402C89.4552 93.1899 89.8157 93.403 89.9201 93.7159" stroke="#F3F3F3" stroke-width="3" stroke-linecap="round"/>
<path d="M74.8834 108.292C74.9509 108.9 75.7461 109.429 76.1109 109.861C77.2259 111.181 78.8179 112.093 80.3133 112.912C84.1523 115.015 88.0595 116.117 92.4432 116.117C94.6073 116.117 96.1921 115.738 98.1373 114.728C100.449 113.527 102.784 112.121 104.65 110.287C105.808 109.149 107.044 107.861 107.565 106.298" stroke="#F3F3F3" stroke-width="3" stroke-linecap="round"/>
<path d="M43.0906 87.3787C43.0906 85.8813 42.7825 84.3417 42.2179 83.0007C41.8177 82.0501 41.8488 80.8685 41.4453 79.9104C40.8792 78.5658 41.1145 76.812 40.8015 75.4036C40.4938 74.0189 40.4269 72.3663 40.3866 70.954C40.3435 69.4447 40.2161 67.7366 40.544 66.2613C40.823 65.0057 41.1314 63.7563 41.3881 62.4985C41.5907 61.5059 42.0605 60.4167 42.0605 59.4367" stroke="#F3F3F3" stroke-width="3" stroke-linecap="round"/>
<path d="M41.9319 59.9518C41.9319 59.5655 41.9319 59.1792 41.9319 58.7929C41.9319 58.2142 42.3068 57.8571 42.5471 57.3765C42.8633 56.7441 42.9989 56.0865 43.3197 55.445C44.2231 53.6382 44.7829 51.6781 45.7662 49.9081C47.1757 47.371 48.1595 44.6514 49.7866 42.2108C50.3507 41.3647 50.775 40.4298 51.3317 39.5783C51.6957 39.0216 52.1542 37.7149 52.7481 37.4179" stroke="#F3F3F3" stroke-width="3" stroke-linecap="round"/>
<path d="M52.6919 37.0157C52.6919 36.369 52.6836 35.9762 52.9662 35.411C53.2211 34.9013 53.612 34.5122 53.8989 34.0531C54.4221 33.216 55.496 32.5582 55.9014 31.646C56.0086 31.4049 56.4392 31.0464 56.6421 30.8436C56.8938 30.5919 57.0826 30.2933 57.3279 30.0481C57.7639 29.612 58.3997 29.0624 58.7132 28.4982C59.0652 27.8645 59.7123 27.2796 60.2219 26.77C60.9985 25.9934 61.5845 25.0371 62.3753 24.2463C63.046 23.5756 63.8448 22.8764 64.3572 22.0792C64.5723 21.7446 65.1146 21.2138 65.4339 20.9682C65.8526 20.6461 66.195 20.2056 66.6409 19.9189C67.1006 19.6234 67.4419 19.1769 67.9028 18.8697C68.2581 18.6328 68.6228 18.3691 68.9246 18.0673C69.5613 17.4306 70.4403 17.2244 71.0849 16.6477C72.2228 15.6295 73.8214 15.1644 75.0899 14.3571C75.6809 13.9811 76.4998 13.339 77.1953 13.1844C77.9579 13.015 78.55 12.1745 79.2321 11.8334" stroke="#F3F3F3" stroke-width="3" stroke-linecap="round"/>
<path d="M79.2321 11.8334C80.4717 11.8334 82.1492 11.1624 83.1205 10.407C84.3294 9.46674 85.8338 9.07008 87.2558 8.5622C88.8106 8.00693 90.2561 7.31789 91.7615 6.64884C92.6497 6.25406 93.644 5.88074 94.6007 5.66815C95.4844 5.47176 96.7704 5.54629 97.5633 5.1058C98.225 4.7382 99.1452 4.64249 99.8744 4.39944C101.002 4.02355 102.163 4.04295 103.303 3.78223C104.264 3.56269 105.249 3.45692 106.197 3.21988C107.149 2.9819 108.282 2.61129 109.256 2.57523C111.049 2.50881 112.716 1.95802 114.537 1.95802C115.722 1.95802 117.134 1.76013 118.267 2.10889C119.248 2.41063 120.195 2.75044 121.079 3.19244" stroke="#F3F3F3" stroke-width="3" stroke-linecap="round"/>
<path d="M120.339 2.32835C121.245 2.32835 122.232 2.2188 123.123 2.35578C124.351 2.5448 125.679 2.93822 126.854 3.34332C129.009 4.08667 131.152 4.82697 133.355 5.41441C134.328 5.67392 135.206 6.0088 136.201 6.16192C137.111 6.30194 138.378 6.4734 139.218 6.84086C141.138 7.68051 143.351 7.54797 145.15 8.74736" stroke="#F3F3F3" stroke-width="3" stroke-linecap="round"/>
<path d="M145.644 8.37703C146.709 8.37703 147.137 8.96436 148.038 9.36457C148.442 9.54431 148.82 9.94331 149.217 10.1669C149.548 10.3532 150.098 10.7354 150.335 11.031C150.716 11.507 151.707 12.0525 152.241 12.3272C153.778 13.1172 155.225 14.0929 156.754 14.9195C158.196 15.6988 159.52 16.8528 160.889 17.7655C162.274 18.6884 163.665 20.0941 164.771 21.3385C165.292 21.9248 165.81 22.5279 166.355 23.0941C166.763 23.5178 167.465 24.0517 167.768 24.548C168.129 25.1398 169.715 25.8245 169.715 26.5231" stroke="#F3F3F3" stroke-width="3" stroke-linecap="round"/>
<path d="M169.715 26.5231C169.715 27.1906 170.587 28.0475 171.073 28.4296C171.71 28.9301 172.108 29.6604 172.616 30.2812C173.837 31.7727 175.199 33.2932 176.073 35.0406C176.734 36.3636 177.682 37.5534 178.356 38.8673C178.83 39.7887 179.371 40.7035 179.961 41.5556C180.998 43.053 181.862 44.7678 182.677 46.3973" stroke="#F3F3F3" stroke-width="3" stroke-linecap="round"/>
<path d="M182.43 46.1505C182.43 47.0513 182.82 47.9452 183.294 48.7153C183.447 48.9642 183.705 49.4095 183.781 49.6754C183.933 50.208 184.376 50.6456 184.522 51.1567C185.213 53.575 186.355 55.9094 186.744 58.433C186.832 59.0047 186.991 59.6438 187.148 60.1955C187.278 60.6497 187.303 61.1252 187.429 61.5808C187.536 61.9645 187.411 62.3839 187.553 62.7535C187.771 63.3194 187.615 64.19 187.615 64.7903C187.615 65.4989 187.615 66.2076 187.615 66.9162C187.615 70.1294 187.738 73.3041 187.738 76.5173" stroke="#F3F3F3" stroke-width="3" stroke-linecap="round"/>
<path d="M187.121 76.3939C187.121 78.6118 187.244 80.7933 187.244 82.9981C187.244 84.5 187.244 86.0018 187.244 87.5037C187.244 88.4207 186.936 89.562 186.689 90.4526C186.45 91.3121 186.412 92.1996 186.195 93.0655C185.984 93.9085 185.992 94.8369 185.64 95.6509C185.278 96.4877 184.997 97.4143 184.679 98.2707C184.188 99.5979 183.293 100.776 182.896 102.125C182.54 103.337 181.829 104.477 181.415 105.677C181.222 106.238 180.86 106.718 180.606 107.255C180.449 107.586 180.148 108.581 179.838 108.736" stroke="#F3F3F3" stroke-width="3" stroke-linecap="round"/>
<path d="M179.467 108.242C179.467 109.316 179.181 109.828 178.631 110.738C178.048 111.702 177.518 112.689 176.971 113.674C176.566 114.403 176.053 115.305 175.462 115.896C174.685 116.673 174.105 117.826 173.199 118.488C172.642 118.895 172.265 119.57 171.814 120.086C171.305 120.667 170.762 121.204 170.333 121.848C169.519 123.069 168.465 124.229 167.466 125.305C166.496 126.35 165.686 127.51 164.654 128.487C164.242 128.877 163.556 129.326 163.297 129.845" stroke="#F3F3F3" stroke-width="3" stroke-linecap="round"/>
<path d="M163.297 129.845C162.118 129.845 161.062 130.811 160.21 131.573C159.802 131.938 159.243 132.192 158.853 132.56C158.429 132.96 157.975 133.431 157.433 133.671C156.459 134.104 155.628 134.832 154.717 135.338C153.967 135.754 152.918 136.51 152.063 136.51" stroke="#F3F3F3" stroke-width="3" stroke-linecap="round"/>
<path d="M45.6187 97.8375C45.7451 98.8493 46.8389 99.8662 47.2569 100.807C47.7777 101.979 48.5263 103.219 49.2136 104.299C49.7866 105.2 50.2187 106.289 50.647 107.269C51.0872 108.275 51.9185 109.139 52.1601 110.226C52.6024 112.217 54.1427 114.368 55.1407 116.165C56.1073 117.905 57.3834 119.707 58.6105 121.284C59.89 122.929 60.7384 125.109 62.615 126.256C63.4195 126.747 64.0177 127.599 64.8675 128.099C65.584 128.52 66.6645 129.07 67.2793 129.623C68.4609 130.687 69.8191 131.66 71.2155 132.399C72.2929 132.969 74.518 133.725 75.1063 134.902" stroke="#F3F3F3" stroke-width="3" stroke-linecap="round"/>
<path d="M117.925 146.481C120.023 146.481 122.125 147.148 124.013 146.204" stroke="#F3F3F3" stroke-width="3" stroke-linecap="round"/>
<path d="M82.3189 180.115C82.3189 179.332 82.422 178.621 82.0249 177.926C81.6774 177.318 80.574 176.972 80.2606 176.424C79.7705 175.566 77.1787 174.663 76.3402 174.3C75.2313 173.82 73.827 173.386 72.6157 173.353C71.4418 173.32 70.2617 173.353 69.0873 173.353C67.1765 173.353 64.7304 172.926 62.8962 173.5C61.9946 173.781 58.9184 173.99 58.502 174.823" stroke="#F3F3F3" stroke-width="3" stroke-linecap="round"/>
<path d="M16.7488 168.942C18.0915 168.942 19.797 168.079 21.1593 167.701C24.4203 166.795 27.4211 166.296 30.8625 166.296C33.397 166.296 36.0892 165.813 38.2134 167.406C40.4662 169.096 42.8119 171.282 44.3882 173.647" stroke="#F3F3F3" stroke-width="3" stroke-linecap="round"/>
<path d="M23.2175 159.533C26.3648 159.533 29.5121 159.533 32.6594 159.533C35.5544 159.533 39.0929 159.082 41.6765 160.709C42.5952 161.287 43.7224 161.652 44.0941 162.767" stroke="#F3F3F3" stroke-width="3" stroke-linecap="round"/>
<path d="M29.3923 149.83C32.0713 149.83 34.7503 149.83 37.4293 149.83C40.4491 149.83 43.7272 151.521 45.8584 153.652" stroke="#F3F3F3" stroke-width="3" stroke-linecap="round"/>
<path d="M43.0862 87.5197C43.0862 89.7191 43.109 91.7939 43.8718 93.8916C44.1728 94.7196 44.3695 95.582 44.7359 96.388C45.0365 97.0493 45.174 98.619 45.9142 98.9891" stroke="#F3F3F3" stroke-width="3" stroke-linecap="round"/>
</svg>
