<svg width="172" height="155" viewBox="0 0 172 155" fill="none" xmlns="http://www.w3.org/2000/svg">
<path d="M42.1091 113.911C39.8149 118.04 40.2192 123.422 38.8151 127.985C37.8678 131.064 36.0002 134.402 33.5186 136.332C33.0107 136.727 29.4893 139.067 30.0562 139.776C31.7618 141.908 33.6673 138.186 34.5293 137.324C36.0534 135.8 36.6242 135.471 38.7403 135.471C40.1035 135.471 43.1197 134.808 43.1197 136.819C43.1197 138.163 42.1298 138.012 41.0984 138.241C38.3511 138.852 36.3812 137.658 34.0426 136.314C32.7773 135.586 28.8148 131.865 27.1366 133.45C25.9561 134.565 24.5912 136.677 24.5912 138.335C24.5912 140.714 26.5758 141.14 28.4467 142.209C29.9837 143.087 31.4578 142.883 33.2753 142.883C34.0863 142.883 34.8973 142.883 35.7083 142.883C37.063 142.883 36.8523 142.302 37.5799 141.367C38.7157 139.907 39.3703 138.619 41.0984 137.755C41.8445 137.382 44.5523 136.989 44.4673 136.819" stroke="#B69A11" stroke-width="17" stroke-linecap="round"/>
<path d="M126.329 55.6305C124.561 55.6305 130.078 55.5046 131.57 56.454C133.837 57.8968 136.717 58.7282 139.131 59.9351C143.053 61.8962 147.43 63.9672 150.566 67.1032C153.22 69.7564 153.781 74.0905 155.638 77.3406C156.284 78.4714 156.528 77.7463 156.911 76.854C157.754 74.8877 158.155 72.6738 158.82 70.6404C158.974 70.1683 161.48 64.2823 162.713 66.7476" stroke="#B69A11" stroke-width="17" stroke-linecap="round"/>
<path d="M113.434 41.1528C114.372 41.1528 111.658 40.5344 110.819 40.115C109.406 39.4089 107.852 38.4966 106.709 37.4168C104.294 35.1361 101.278 33.6702 98.6768 31.6468C95.5927 29.248 91.4974 28.9659 88.2161 27.1429C85.271 25.5067 81.2061 25.2694 77.9422 25.0881C75.2759 24.94 72.4962 24.7145 69.7231 24.7145C65.9231 24.7145 63.1644 25.9479 59.6359 26.9561C57.3319 27.6144 55.3423 29.383 53.2641 30.526C50.6786 31.948 47.989 33.9123 45.8959 36.0054C42.1876 39.7137 38.1798 43.2234 34.4597 46.9435C27.0809 54.3223 23.3971 63.6745 23.3971 73.9462C23.3971 76.935 23.3971 79.9238 23.3971 82.9125C23.3971 87.3533 24.1642 90.4569 26.5727 94.2034C27.783 96.0861 30.0324 97.1867 31.4294 98.8942C32.811 100.583 34.5979 101.619 36.2654 102.983C38.3633 104.699 40.9021 105.758 42.9902 107.466C44.6953 108.861 46.8163 109.583 48.4281 111.015C51.3605 113.622 55.4376 114.763 58.6812 116.827C62.1984 119.065 67.1773 120.096 71.2174 121.019C76.6336 122.257 82.1929 122.223 87.7387 122.223C92.0163 122.223 95.6467 122.128 99.4032 119.982C103.735 117.506 99.0165 113.572 96.9956 110.974C95.7438 109.364 94.7055 107.642 93.2596 106.159C90.8095 103.644 87.9407 101.677 85.4971 99.1225C82.0907 95.5612 79.0196 91.7409 75.9497 87.8938C71.5459 82.3752 69.0052 75.5522 66.9003 68.8819C64.8566 62.4054 64.2867 55.7374 63.5587 49.0398C63.467 48.1957 63.898 44.5151 62.7077 44.5151C61.0222 44.5151 58.9986 47.0204 57.934 48.085C56.0421 49.977 54.0126 52.0603 52.5376 54.3116C52.4224 54.4876 51.909 55.3365 52.2886 55.4947C54.3416 56.3501 58.1515 52.7324 59.4699 51.7795C64.604 48.0688 69.6505 44.1045 75.327 41.2358C76.578 40.6035 79.5409 38.5907 81.0762 38.9319C81.6879 39.0679 81.7857 43.2163 81.8442 43.7679C82.223 47.3398 82.0517 50.9751 82.0517 54.5607C82.0517 63.4741 81.3045 72.4128 81.3045 81.2936C81.3045 83.2404 81.7131 80.1229 81.8442 79.6332C83.3384 74.0494 86.9331 68.6877 89.9803 63.8591C92.155 60.413 94.8296 57.0662 96.622 53.4814C97.5727 51.58 98.9678 50.2377 99.9844 48.4586C100.625 47.3379 99.796 49.375 99.6108 49.7455C98.8379 51.2913 98.0445 52.8237 97.3692 54.4154C95.9569 57.7444 94.7871 61.1664 93.82 64.6478C92.3058 70.0992 92.5124 75.4826 92.5124 81.1276C92.5124 82.8253 90.6752 83.1308 89.5237 84.2824C87.8306 85.9754 86.6878 88.192 84.8122 89.7203C82.9042 91.275 80.6364 92.2953 78.3158 93.0827C73.3537 94.7662 68.6811 95.1226 63.8285 92.9996C58.3176 90.5886 53.5823 85.7615 51.0432 80.4011C47.883 73.7296 49.5505 64.3141 54.7584 59.1061C57.3702 56.4943 60.5559 54.9829 63.3927 52.7135C70.128 47.3252 77.6469 41.3912 86.1613 39.2017C87.79 38.7829 89.3054 38.4368 91.0181 38.5376C92.3586 38.6164 93.7355 40.4759 94.9201 41.1528C95.7512 41.6277 97.5213 42.0901 98.1164 42.8339C98.8917 43.803 100.702 43.3943 101.852 43.3943" stroke="#B69A11" stroke-width="42" stroke-linecap="round"/>
<path d="M118.935 17.3302C117.047 17.3302 115.078 14.135 113.667 13.0374C111.899 11.6623 109.484 11.084 107.831 9.59604C107.119 8.95507 105.326 8.15942 104.407 7.75119C103.663 7.42056 101.535 6.91443 101.055 6.31434C100.386 5.47841 98.3219 5.45602 97.4004 5.03714C96.2936 4.53403 94.7038 4.08465 93.5156 3.90184C87.491 2.97499 81.9065 2.00378 75.688 2.00378C71.1211 2.00378 66.0309 1.86422 61.7806 3.28098" stroke="#F3F3F3" stroke-width="3" stroke-linecap="round"/>
<path d="M61.6059 3.22882C59.4385 3.22882 57.2843 3.42128 55.3198 4.4035C54.361 4.88292 53.2117 5.05083 52.2482 5.58611C51.3568 6.08133 50.1551 6.37958 49.1766 6.72904C46.7645 7.59051 44.4996 8.9269 42.0968 9.80066C41.1693 10.1379 40.3288 10.5899 39.4617 10.9753C38.9189 11.2166 37.8703 11.5548 37.6044 12.0865" stroke="#F3F3F3" stroke-width="3" stroke-linecap="round"/>
<path d="M37.8901 12.3723C37.0191 12.3723 35.3212 13.4404 34.7471 14.1581C34.4139 14.5746 33.6752 14.8331 33.247 15.1661C32.5809 15.6842 31.913 16.2036 31.2469 16.7217C30.6735 17.1677 29.9629 17.4187 29.3896 17.8647C28.8724 18.2669 28.2672 18.7532 27.6832 19.087C26.9475 19.5073 26.4313 20.5316 25.683 21.0077C25.1593 21.341 24.2447 21.923 23.8972 22.4443C23.5305 22.9943 22.6812 23.6091 22.1749 24.0873C21.5568 24.671 21.0682 25.3368 20.4605 25.9445C19.9431 26.4619 19.2206 27.184 18.8572 27.8018C18.5486 28.3265 17.684 28.6864 17.6031 29.3733C17.5522 29.8061 16.8774 30.607 16.5713 30.9131C16.1129 31.3715 15.7444 31.8829 15.2855 32.3418C14.4111 33.2162 13.5841 34.5541 13.0314 35.6594" stroke="#F3F3F3" stroke-width="3" stroke-linecap="round"/>
<path d="M13.0314 35.8023C13.0314 36.3362 12.4961 36.8516 12.2456 37.3024C12.037 37.6779 11.7456 38.0524 11.4599 38.3739C10.7983 39.1182 10.018 39.9084 9.57086 40.8026C9.09412 41.7561 8.52579 42.6826 8.06283 43.6599C7.46816 44.9154 7.04255 46.3696 6.31669 47.5491C5.24698 49.2874 5.06746 51.4702 4.49118 53.3431C4.38931 53.6742 4.31656 54.3916 4.31656 54.7321C4.31656 55.1704 4.06355 55.5528 4.03083 55.9782C3.95738 56.9331 3.60223 57.8214 3.60223 58.8038" stroke="#F3F3F3" stroke-width="3" stroke-linecap="round"/>
<path d="M3.60224 59.6609C3.60224 60.8571 3.66312 62.1319 3.45144 63.2961C3.23734 64.4736 2.93495 65.6129 2.88791 66.836C2.78157 69.6009 2.03072 72.3615 2.03072 75.154C2.03072 78.2541 1.85978 81.4283 2.32439 84.4482C2.54269 85.8672 3.07835 87.3445 3.17364 88.7739C3.21877 89.4507 3.50931 90.5989 3.77686 91.2344C3.98312 91.7242 4.03586 92.7599 4.60231 92.9488" stroke="#F3F3F3" stroke-width="3" stroke-linecap="round"/>
<path d="M3.60223 91.9487C3.60223 92.5036 3.49001 93.1938 3.61017 93.7345C3.791 94.5483 4.14417 95.3518 4.3245 96.1633C4.47635 96.8466 4.78827 97.4882 5.0309 98.1554C5.36393 99.0713 6.05143 99.878 6.31669 100.806C6.54059 101.59 7.34725 102.485 7.81678 103.164C8.52934 104.193 8.96164 105.421 9.67405 106.45C10.914 108.241 11.791 110.352 13.1028 112.101C14.357 113.773 15.3103 115.622 16.4602 117.347C16.9033 118.012 17.3972 118.694 17.7777 119.379C18.177 120.098 18.8764 120.54 19.2858 121.236C19.9581 122.379 21.0841 123.343 21.778 124.522C22.6296 125.97 24.3574 126.202 25.7465 126.665" stroke="#F3F3F3" stroke-width="3" stroke-linecap="round"/>
<path d="M118.447 17.3858C118.751 17.4238 119.009 18.1555 119.247 18.3462C119.486 18.5376 119.7 18.7932 119.917 19.0101C120.391 19.4844 120.959 19.8176 121.435 20.2669C122.098 20.8935 122.92 21.3255 123.569 21.9741C124.344 22.7491 125.199 23.5634 126.129 24.1616C126.533 24.4212 127.217 25.0271 127.517 25.4124C128.016 26.0541 128.674 26.5636 129.177 27.2026C129.967 28.2093 131.042 28.9657 131.726 30.0837C132.51 31.3676 133.4 32.567 134.079 33.925C134.419 34.6047 134.697 35.3981 135.093 36.0354C135.403 36.5346 135.758 37.2008 135.946 37.7664" stroke="#F3F3F3" stroke-width="3" stroke-linecap="round"/>
<path d="M137.219 38.5005C137.048 39.8672 134.885 41.1388 134.023 42.0004C132.651 43.3728 131.574 45.0508 130.287 46.481C129.207 47.681 128.112 49.4145 127.328 50.8263C126.571 52.1877 125.296 53.5763 124.741 55.104C123.349 58.9326 121.294 62.5173 119.939 66.4323C118.474 70.6637 117.001 74.7556 116.202 79.147C115.496 83.0318 115.306 86.8467 115.306 90.8473C115.306 92.7887 115.249 94.7519 115.678 96.6298C116.164 98.7565 115.993 101.294 116.896 103.325C117.652 105.027 118.757 106.806 119.28 108.634C119.906 110.826 121.999 112.678 122.915 114.738C123.495 116.044 125.252 118.614 126.567 119.388C127.897 120.17 128.819 121.799 130.219 122.499" stroke="#F3F3F3" stroke-width="3" stroke-linecap="round"/>
<path d="M129.735 122.729C128.829 122.729 128.604 123.54 127.967 124.006C126.996 124.716 126.018 125.691 125.263 126.613C124.483 127.567 123.441 128.294 122.56 129.142C121.77 129.903 120.926 130.608 120.153 131.381C119.459 132.075 118.621 132.651 117.882 133.298C116.696 134.335 115.375 135.207 114.081 136.085C112.865 136.911 111.491 137.512 110.281 138.35C109.357 138.99 108.22 139.201 107.319 139.802" stroke="#F3F3F3" stroke-width="3" stroke-linecap="round"/>
<path d="M107.435 139.337C105.708 139.337 104.114 140.834 102.673 141.634C101.019 142.554 99.163 143.356 97.3308 143.841C96.4058 144.086 95.5085 144.277 94.5692 144.473C93.7152 144.652 92.545 144.587 91.756 144.938C90.8298 145.349 89.7278 145.389 88.7621 145.699C87.8484 145.993 86.8432 146.008 85.9489 146.306" stroke="#F3F3F3" stroke-width="3" stroke-linecap="round"/>
<path d="M86.065 145.841C83.9705 145.841 81.7315 145.636 79.703 146.215C78.7731 146.481 77.603 146.422 76.6316 146.422C75.8272 146.422 75.0228 146.422 74.2184 146.422C72.4876 146.422 70.4427 146.716 68.7597 146.331C67.9705 146.151 67.0841 146.288 66.3207 145.983C65.7761 145.765 64.8214 145.725 64.2302 145.725" stroke="#F3F3F3" stroke-width="3" stroke-linecap="round"/>
<path d="M64.2301 145.725C63.2344 145.725 61.8399 145.966 60.9265 145.551C60.3357 145.282 59.6462 145.331 59.0682 144.964C58.5057 144.606 57.8534 144.246 57.2357 144.009C56.2247 143.62 55.2403 143.063 54.1838 142.828C53.3204 142.636 52.338 142.241 51.4544 142.241" stroke="#F3F3F3" stroke-width="3" stroke-linecap="round"/>
<path d="M41.6617 99.1735C40.5726 99.1735 39.2913 100.963 38.4265 101.635C37.2763 102.53 36.3999 103.651 35.3873 104.664C33.236 106.815 31.3146 109.563 29.9408 112.31C29.2521 113.688 28.6745 115.215 28.3396 116.722C28.0526 118.013 27.5444 119.417 27.5444 120.742C27.5444 123.275 26.7601 125.825 26.7601 128.388" stroke="#F3F3F3" stroke-width="3" stroke-linecap="round"/>
<path d="M26.76 128.388C25.9249 128.388 25.0898 128.388 24.2546 128.388C22.9939 128.388 22.4644 128.686 21.4225 129.369C19.5367 130.604 18.1977 133.028 19.0696 135.295C19.3907 136.13 20.5598 136.965 21.466 137.016C22.3303 137.064 20.275 137.743 19.8974 137.952C18.4196 138.774 18.3289 141.295 18.3289 142.745C18.3289 144.674 17.8242 147.32 18.9171 149.02C20.3733 151.285 23.739 149.106 24.4507 147.255C24.6116 146.837 24.9016 146.37 25.0934 145.948C25.4051 145.262 25.1958 145.943 25.3439 146.536C25.8148 148.419 26.7706 149.967 28.1325 151.329C29.7762 152.973 33.334 154.678 34.1673 151.438C34.6839 149.429 34.7991 147.356 34.7991 145.294C34.7991 144.997 34.6296 144.403 34.908 144.761C35.3831 145.371 35.8161 145.932 36.1716 146.623C36.853 147.948 39.5934 151.927 41.6616 150.893C42.8453 150.301 42.4459 147.685 42.4459 146.623C42.4459 145.659 42.2536 145.029 41.6181 144.314C40.8293 143.427 43.933 144.916 44.9949 145.447C46.2304 146.065 47.3632 146.604 48.6767 147.059C49.4717 147.334 49.8513 147.532 50.3325 146.623C50.7083 145.913 50.9607 145.171 51.3128 144.466C52.1441 142.804 51.1694 141.397 51.0732 139.761C51.0209 138.873 50.1567 137.653 49.8532 136.776C49.612 136.079 49.0158 135.216 48.5242 134.663C47.4879 133.497 46.3339 132.605 45.191 131.526C44.4063 130.785 42.276 130.402 41.8577 129.565" stroke="#F3F3F3" stroke-width="3" stroke-linecap="round"/>
<path d="M41.8577 129.565C41.8577 127.189 41.7313 124.815 42.4024 122.55C43.088 120.236 43.5663 117.868 44.4067 115.557C45.4134 112.788 46.6895 110.271 48.4371 107.888C49.3044 106.705 50.8812 103.487 52.6418 103.487" stroke="#F3F3F3" stroke-width="3" stroke-linecap="round"/>
<path d="M127.934 50.7433C128.914 50.7433 129.895 50.7433 130.875 50.7433C132.543 50.7433 134.11 51.2713 135.733 51.3315C136.913 51.3752 138.071 51.8521 139.208 52.1049C140.391 52.3678 141.822 52.488 142.945 52.9981C144.405 53.6621 145.918 54.5615 147.454 55.0133C148.072 55.1951 148.549 55.8138 149.121 56.1353C149.885 56.5651 150.542 57.006 151.256 57.4969C151.71 57.809 157.168 62.4001 156.561 62.7038" stroke="#F3F3F3" stroke-width="3" stroke-linecap="round"/>
<path d="M122.444 63.0959C123.424 63.0959 124.405 63.0959 125.385 63.0959C126.767 63.0959 127.975 63.7009 129.307 63.8911C130.743 64.0963 132.018 65.5284 133.424 65.8409C134.924 66.1742 136.731 67.6505 137.934 68.586C139.6 69.8815 141.419 70.8235 142.836 72.4639C143.618 73.3701 144.575 74.1987 145.385 75.0564C146.037 75.7471 146.58 76.5185 147.236 77.2132C147.491 77.4828 149.038 79.2621 148.326 78.1936" stroke="#F3F3F3" stroke-width="3" stroke-linecap="round"/>
<path d="M148.326 78.1936C148.25 78.8012 147.456 79.6732 147.247 80.3395C146.976 81.2066 147.117 82.3523 147.149 83.2479C147.216 85.1201 150.258 86.5788 151.899 85.993C152.965 85.612 153.419 84.2811 153.914 83.3896C154.595 82.1633 154.208 83.9276 154.208 84.664C154.208 86.6991 153.659 90.7622 156.55 91.1236C157.215 91.2067 158.508 91.3713 158.914 90.7859C159.836 89.4538 159.894 87.703 159.894 86.1346C159.894 84.5425 160.04 82.9113 159.546 81.3744C159.488 81.196 158.87 80.1827 158.936 80.0672C159.157 79.6804 162.921 80.6223 163.728 80.3286C164.754 79.9557 166.328 77.93 165.929 76.7775C165.332 75.052 163.246 74.7378 161.855 74.1196C161.735 74.0662 161.152 74.0761 161.604 74.0761C162.392 74.0761 163.16 74.2451 163.935 74.3702C164.654 74.4861 167.065 74.8771 167.737 74.2721C168.918 73.2091 170.589 70.9826 170.046 69.2178C169.823 68.4932 168.174 68.2825 167.552 68.2047C167.167 68.1566 165.944 68.4157 166.648 68.0958C168.782 67.1255 169.894 64.6737 169.894 62.3116C169.894 60.003 166.447 59.9587 164.818 59.9587C163.054 59.9587 161.905 60.4032 160.264 60.95C159.547 61.1892 158.678 61.5978 158.129 62.1156C157.823 62.4051 157.123 62.9739 156.757 63.0959" stroke="#F3F3F3" stroke-width="3" stroke-linecap="round"/>
<path d="M50.0115 55.9476C51.0862 55.9476 52.0647 57.1577 52.9819 57.6673C54.0776 58.2759 55.2746 58.558 56.404 59.0743C58.7387 60.1416 63.7965 59.7661 65.8884 58.449C68.4627 56.8281 71.5635 55.329 72.7672 52.265C73.6732 49.9589 73.7747 48.1232 73.7747 45.6293" stroke="#F3F3F3" stroke-width="3" stroke-linecap="round"/>
<path d="M89.7211 41.5646C90.4138 41.6512 91.8324 42.8419 92.3789 43.2669C93.6134 44.2271 95.1602 44.6461 96.5999 45.1603C99.4786 46.1884 103.81 47.2699 106.606 45.473C112.123 41.9263 114.422 35.7242 114.422 29.3703" stroke="#F3F3F3" stroke-width="3" stroke-linecap="round"/>
<path d="M84.093 55.9476C85.4662 55.9476 87.0702 55.8433 88.3314 56.4166C89.3126 56.8626 91.9145 57.1365 92.2398 58.2753C92.7177 59.9478 92.6577 60.2559 91.215 61.6452C89.8729 62.9375 87.4021 64.0249 86.5943 65.6405" stroke="#F3F3F3" stroke-width="3" stroke-linecap="round"/>
<path d="M76.9015 85.6516C77.0399 86.8977 79.3196 88.3824 80.1846 89.2473C81.1572 90.2199 82.2306 90.9043 83.4676 91.5229C86.1978 92.8879 89.422 93.7131 92.5352 92.9125C94.054 92.522 96.789 91.3796 97.8506 90.1853C98.4549 89.5056 99.3694 89.102 100.039 88.4656C100.784 87.7582 101.669 86.6896 102.471 86.1032C104.63 84.5259 106.293 80.8203 106.293 78.1474" stroke="#F3F3F3" stroke-width="3" stroke-linecap="round"/>
</svg>
