<svg width="23" height="28" viewBox="0 0 23 28" fill="none" xmlns="http://www.w3.org/2000/svg">
<path d="M20.9993 19.1574C20.6671 19.1574 20.4856 19.1061 20.2634 19.3414C19.9594 19.6633 19.7444 20.0546 19.4764 20.3992C18.9898 21.0249 18.8836 21.8385 18.8836 22.6171C18.8836 23.4497 18.8044 24.6522 19.4355 25.3204C19.9256 25.8393 20.3956 26.7002 21.1833 26.7002" stroke="#F3F3F3" stroke-width="2" stroke-linecap="round"/>
<path d="M21.1833 26.7002C17.0655 26.7002 12.9752 26.6082 8.85723 26.6082C7.22622 26.6082 5.66071 26.8841 4.02799 26.8841C2.65523 26.8841 2.47708 25.3676 2.41825 24.3085C2.33987 22.8977 2.36261 21.2523 3.86957 20.6496C5.24679 20.0987 6.77362 19.5253 8.30532 19.5253C9.96333 19.5253 11.5303 19.2493 13.1806 19.2493C15.3575 19.2493 17.5345 19.2493 19.7115 19.2493" stroke="#F3F3F3" stroke-width="2" stroke-linecap="round"/>
<path d="M7.93738 2.59998C7.93738 8.29912 8.02936 14.0397 8.02936 19.7093" stroke="#F3F3F3" stroke-width="2" stroke-linecap="round"/>
<path d="M21.2752 1.58813C21.5306 1.62005 21.3672 7.05329 21.3672 7.75116C21.3672 9.44539 21.2752 11.1236 21.2752 12.8104C21.2752 14.1048 21.1832 15.4137 21.1832 16.7198C21.1832 17.1184 21.1832 17.517 21.1832 17.9156C21.1832 18.2422 21.1763 18.8918 20.9993 19.1574" stroke="#F3F3F3" stroke-width="2" stroke-linecap="round"/>
<path d="M21.9191 1.40419C20.9332 1.40419 19.9113 1.48444 18.9296 1.39908C18.0334 1.32115 17.1429 1.22022 16.2365 1.22022C13.7173 1.22022 11.2152 1.12823 8.69367 1.12823C7.95062 1.12823 7.1671 1.29163 6.46558 1.54217C5.91835 1.73761 5.34458 1.72191 4.80984 1.97655C3.26747 2.711 2.96675 3.99748 2.43865 5.5231C2.28893 5.95564 2.28527 6.38189 2.1627 6.8109C2.05741 7.17938 2.24121 7.61181 2.13715 7.97605C1.97233 8.5529 1.95828 9.42784 1.95828 10.0508C1.95828 10.6687 1.77431 11.2337 1.77431 11.8497C1.77431 12.8002 1.77431 13.7507 1.77431 14.7012C1.77431 15.6972 1.68512 16.7363 1.77942 17.7265C1.84677 18.4336 1.95828 19.0728 1.95828 19.8013C1.95828 20.9046 2.14226 22.0433 2.14226 23.1128" stroke="#F3F3F3" stroke-width="2" stroke-linecap="round"/>
</svg>
