<svg width="23" height="28" viewBox="0 0 23 28" fill="none" xmlns="http://www.w3.org/2000/svg">
<path d="M20.2631 19.0291C19.931 19.0291 19.7495 18.9778 19.5273 19.2131C19.2232 19.535 19.0083 19.9264 18.7403 20.2709C18.2536 20.8966 18.1475 21.7102 18.1475 22.4888C18.1475 23.3214 18.0683 24.5239 18.6994 25.1922C19.1895 25.7111 19.6595 26.572 20.4471 26.572" stroke="white" stroke-width="2" stroke-linecap="round"/>
<path d="M20.4471 26.5719C16.3293 26.5719 12.239 26.4799 8.12109 26.4799C6.49007 26.4799 4.92457 26.7559 3.29185 26.7559C1.91909 26.7559 1.74094 25.2393 1.6821 24.1803C1.60372 22.7695 1.62647 21.1241 3.13343 20.5213C4.51065 19.9704 6.03748 19.3971 7.56917 19.3971C9.22718 19.3971 10.7941 19.1211 12.4444 19.1211C14.6214 19.1211 16.7984 19.1211 18.9754 19.1211" stroke="white" stroke-width="2" stroke-linecap="round"/>
<path d="M7.20123 2.47174C7.20123 8.17089 7.29322 13.9115 7.29322 19.581" stroke="white" stroke-width="2" stroke-linecap="round"/>
<path d="M20.5391 1.4599C20.7944 1.49182 20.6311 6.92506 20.6311 7.62293C20.6311 9.31716 20.5391 10.9954 20.5391 12.6821C20.5391 13.9765 20.4471 15.2855 20.4471 16.5915C20.4471 16.9901 20.4471 17.3887 20.4471 17.7873C20.4471 18.114 20.4402 18.7635 20.2631 19.0291" stroke="white" stroke-width="2" stroke-linecap="round"/>
<path d="M21.183 1.27596C20.197 1.27596 19.1751 1.35621 18.1935 1.27085C17.2972 1.19291 16.4067 1.09199 15.5003 1.09199C12.9812 1.09199 10.479 1 7.95752 1C7.21448 1 6.43095 1.16339 5.72943 1.41393C5.1822 1.60937 4.60843 1.59367 4.07369 1.84831C2.53133 2.58277 2.23061 3.86924 1.70251 5.39486C1.55278 5.82741 1.54913 6.25365 1.42655 6.68266C1.32127 7.05115 1.50507 7.48357 1.401 7.84781C1.23618 8.42467 1.22214 9.29961 1.22214 9.9226C1.22214 10.5405 1.03817 11.1054 1.03817 11.7214C1.03817 12.6719 1.03817 13.6225 1.03817 14.573C1.03817 15.5689 0.948977 16.6081 1.04328 17.5983C1.11062 18.3054 1.22214 18.9446 1.22214 19.6731C1.22214 20.7763 1.40611 21.9151 1.40611 22.9845" stroke="white" stroke-width="2" stroke-linecap="round"/>
</svg>
