<svg width="33" height="32" viewBox="0 0 33 32" fill="none" xmlns="http://www.w3.org/2000/svg">
<path d="M10.5 29.3333C9.21111 29.3333 8.11111 28.8778 7.2 27.9667C6.28889 27.0555 5.83334 25.9555 5.83334 24.6667V7.33332C5.83334 6.04443 6.28889 4.94443 7.2 4.03332C8.11111 3.12221 9.21111 2.66666 10.5 2.66666H27.1667V22.6667C26.6111 22.6667 26.1389 22.8611 25.75 23.25C25.3611 23.6389 25.1667 24.1111 25.1667 24.6667C25.1667 25.2222 25.3611 25.6944 25.75 26.0833C26.1389 26.4722 26.6111 26.6667 27.1667 26.6667V29.3333H10.5ZM8.5 20.4333C8.81111 20.2778 9.13334 20.1667 9.46667 20.1C9.8 20.0333 10.1444 20 10.5 20H11.1667V5.33332H10.5C9.94445 5.33332 9.47223 5.52777 9.08334 5.91666C8.69445 6.30555 8.5 6.77777 8.5 7.33332V20.4333ZM13.8333 20H24.5V5.33332H13.8333V20ZM10.5 26.6667H22.9333C22.8 26.3555 22.6945 26.0389 22.6167 25.7167C22.5389 25.3944 22.5 25.0444 22.5 24.6667C22.5 24.3111 22.5333 23.9667 22.6 23.6333C22.6667 23.3 22.7778 22.9778 22.9333 22.6667H10.5C9.92223 22.6667 9.44445 22.8611 9.06667 23.25C8.68889 23.6389 8.5 24.1111 8.5 24.6667C8.5 25.2444 8.68889 25.7222 9.06667 26.1C9.44445 26.4778 9.92223 26.6667 10.5 26.6667Z" fill="white"/>
</svg>
