<svg width="38" height="39" viewBox="0 0 38 39" fill="none" xmlns="http://www.w3.org/2000/svg">
<path d="M7.65015 4.30612C8.55748 4.30612 9.2931 3.60859 10.0753 3.21748C10.8769 2.8167 11.7149 2.50015 12.5436 2.12345C13.4359 1.71788 14.5245 1.29889 15.5078 1.29889C16.5295 1.29889 17.5059 1.00786 18.5581 1.00786C20.4349 1.00786 22.5128 0.884904 24.2384 1.61146C24.6585 1.78832 25.1994 1.98131 25.645 2.08033C26.0085 2.1611 26.3628 2.55026 26.7175 2.6516C27.4709 2.86685 28.2028 3.72407 28.9918 3.72407" stroke="#F7F7F7" stroke-width="2" stroke-linecap="round"/>
<path d="M28.9918 3.72408C29.8091 3.72408 30.704 5.14524 31.223 5.66422C32.0306 6.47183 32.5853 7.46621 33.3572 8.28343C34.1798 9.1545 34.5237 10.5174 35.0278 11.5817C35.5747 12.7361 36.0829 13.9289 36.6554 15.0739" stroke="#F7F7F7" stroke-width="2" stroke-linecap="round"/>
<path d="M36.6554 15.0739C36.6554 16.7877 36.6554 18.5015 36.6554 20.2153C36.6554 20.972 36.7249 21.7698 36.5637 22.495C36.4108 23.183 36.1971 23.9599 36.1703 24.6561C36.1428 25.3729 35.5416 26.1937 35.2972 26.8657C34.9718 27.7607 34.409 28.5547 34.0146 29.431C33.7911 29.9278 33.5697 30.4174 33.2601 30.8646C33.0262 31.2025 32.5465 31.5568 32.387 31.9155C32.0519 32.6696 30.9005 32.8891 30.5439 33.6024" stroke="#F7F7F7" stroke-width="2" stroke-linecap="round"/>
<path d="M30.5439 33.6024C30.0544 33.6568 29.6052 34.1102 29.1858 34.3569C28.8599 34.5486 28.147 34.9251 27.9247 35.203C27.5373 35.6872 26.7201 35.9593 26.1786 36.2C25.5576 36.476 24.69 36.8036 24.0013 36.8036C22.5253 36.8036 21.0803 37.2886 19.5821 37.2886C18.7674 37.2886 17.7848 37.4406 17.0114 37.1431C16.4569 36.9299 15.814 36.9006 15.2167 36.9006" stroke="#F7F7F7" stroke-width="2" stroke-linecap="round"/>
<path d="M15.2168 36.9006C13.8663 36.9006 12.5555 36.9066 11.3365 36.297C10.7875 36.0225 10.2356 35.7804 9.73583 35.3916C9.48755 35.1985 9.16148 35.0498 8.93282 34.8419C8.6982 34.6286 8.31993 34.2655 8.0382 34.109C7.70369 33.9231 7.58836 33.5812 7.31064 33.3652C7.012 33.133 6.69709 32.8114 6.48069 32.4868C6.01738 31.7918 5.2272 31.3297 4.88007 30.5197C4.48911 29.6075 3.82574 28.7489 3.33334 27.8735C2.95089 27.1936 2.65235 26.4199 2.31476 25.7448" stroke="#F7F7F7" stroke-width="2" stroke-linecap="round"/>
<path d="M7.55314 4.69415C7.25782 4.98947 7.01948 5.32481 6.72857 5.61572C6.35957 5.98472 6.0545 6.56575 5.66149 6.87142C4.79052 7.54884 4.55078 8.73236 3.86685 9.54452C3.52937 9.94528 3.307 10.6587 3.09079 11.1451C2.85359 11.6789 2.64545 12.2863 2.36324 12.7943C1.88809 13.6495 1.47977 14.8377 1.44167 15.8284C1.42366 16.2965 1.15065 16.7853 1.15065 17.2566C1.15065 17.838 1.05364 18.4059 1.05364 18.9974C1.05364 19.468 1.05364 19.9387 1.05364 20.4094C1.05364 20.8118 0.91966 21.4951 1.0752 21.8645C1.26209 22.3083 1.26261 22.9788 1.35005 23.4597C1.43092 23.9045 1.67355 24.3884 1.8297 24.8178C2.10242 25.5678 2.88164 27.1302 3.67284 27.3939" stroke="#F7F7F7" stroke-width="2" stroke-linecap="round"/>
<path d="M12.7915 16.141C12.5842 16.141 11.9358 16.2587 11.9185 15.947C11.8854 15.3515 11.8989 14.7496 12.452 14.4003C13.4296 13.7828 14.0301 15.4629 13.4113 15.7961C12.0165 16.5472 12.0745 14.5514 12.7915 13.9099C13.3067 13.4489 13.5228 14.3308 13.5622 14.6859C13.6198 15.2041 13.6458 15.4036 13.1796 15.559" stroke="#F7F7F7" stroke-width="2" stroke-linecap="round"/>
<path d="M25.0145 15.85C24.5166 15.7878 25.4287 14.2277 25.8876 15.0308C26.0639 15.3395 26.0378 15.6897 25.672 15.8284C25.4599 15.9089 24.609 16.2672 24.3894 15.9847C24.1921 15.7311 24.15 14.9706 24.2923 14.6859C24.4054 14.4598 24.8384 14.0679 25.1115 14.341C25.2014 14.4309 25.5413 15.2075 25.3487 15.2626C24.9073 15.3887 24.8258 14.872 25.0145 14.5889" stroke="#F7F7F7" stroke-width="2" stroke-linecap="round"/>
<path d="M19.194 17.2081C19.194 17.8497 19.1333 18.336 18.6605 18.8087C18.4957 18.9735 18.399 19.177 18.224 19.3423C18.0569 19.5001 17.8043 19.5679 17.6419 19.7303C16.997 20.3752 18.9495 21.3754 19.194 21.8645" stroke="#F7F7F7" stroke-width="2" stroke-linecap="round"/>
<path d="M15.5078 27.1029H22.2983" stroke="#F7F7F7" stroke-width="2" stroke-linecap="round"/>
</svg>
