<svg width="27" height="24" viewBox="0 0 27 24" fill="none" xmlns="http://www.w3.org/2000/svg">
<path d="M5.76217 1.95854C5.76217 -2.80384 5.61786 11.4826 5.61786 16.245" stroke="white" stroke-width="2" stroke-linecap="round"/>
<path d="M21.9246 5.42194C21.9246 6.61308 20.4522 7.64386 19.792 8.53256C18.8441 9.8086 17.9225 11.1599 16.8658 12.3487C15.676 13.6872 14.353 15.0814 13.5547 16.6779" stroke="white" stroke-width="2" stroke-linecap="round"/>
<path d="M22.3575 5.27763C22.3685 5.20079 24.0095 6.5769 24.2656 6.83295C24.8317 7.3991 25.7736 8.22378 25.3158 9.03764C24.6809 10.1664 23.5067 11.1082 22.7103 12.1322C22.0087 13.0342 21.2134 13.9211 20.4495 14.7699C19.775 15.5192 19.3325 16.3839 18.6055 17.1108C17.9526 17.7638 17.4775 18.8791 16.8017 19.4198C16.3633 19.7705 16.4618 20.1724 15.8637 19.8206C15.4489 19.5766 14.9729 19.1062 14.6371 18.7704C14.0095 18.1428 12.9448 17.6226 12.5446 16.8222" stroke="white" stroke-width="2" stroke-linecap="round"/>
<path d="M12.4003 17.3994C12.4003 18.1016 11.8027 19.0236 11.4623 19.6362C11.0254 20.4226 10.7348 21.3449 10.348 22.1616C10.0052 22.8852 12.9418 21.9516 13.3303 21.881C14.0296 21.7538 14.7045 21.2957 15.4308 21.2957" stroke="white" stroke-width="2" stroke-linecap="round"/>
<path d="M1 8.1638C3.72046 8.1638 6.44092 8.1638 9.16139 8.1638C9.81289 8.1638 13.2971 7.79285 13.5547 8.3081" stroke="white" stroke-width="2" stroke-linecap="round"/>
</svg>
