<svg width="19" height="19" viewBox="0 0 19 19" fill="none" xmlns="http://www.w3.org/2000/svg">
<path d="M1.57048 1.63231C4.93532 1.63231 8.25797 1.60962 11.5879 1.94261C12.7995 2.06377 14.1858 2.15313 15.3525 2.49881C15.8845 2.65646 16.7589 2.55249 17.0855 3.1077C17.7937 4.31169 17.9051 5.37054 17.9051 6.74933C17.9051 8.53892 17.9051 10.3285 17.9051 12.1181C17.9051 13.5212 17.7787 14.8739 17.4777 16.2281C17.3078 16.9926 16.3114 17.0185 15.6335 17.0185C14.6436 17.0185 13.683 17.1239 12.6827 17.1239C11.3647 17.1239 9.92151 17.2468 8.63126 16.9951C7.92767 16.8578 7.20599 16.8541 6.50014 16.7258C5.89079 16.615 5.27265 16.7725 4.67933 16.5443C3.83044 16.2178 2.80303 16.3433 1.95103 15.9646C1.14663 15.6071 1.22298 14.2428 1.06697 13.5408C0.93144 12.9309 1.04355 12.1683 1.04355 11.5443C1.04355 10.8398 1.04355 10.1353 1.04355 9.43079C1.04355 7.94323 1.14894 6.47374 1.14894 4.98121C1.14894 3.64774 1.51898 2.31134 1.78125 1" stroke="#171717" stroke-width="2" stroke-linecap="round"/>
<path d="M1.2543 13.4354C1.2543 13.1121 1.89338 12.4671 2.15593 12.2761C2.49848 12.027 2.73838 11.6203 2.9873 11.2808C3.23034 10.9494 3.54082 10.6835 3.78354 10.3558C4.04997 9.99612 4.47368 9.79446 4.7847 9.48345C5.29354 8.97461 5.27709 8.95553 5.7273 9.43076C6.30896 10.0447 6.67558 10.904 7.16171 11.6029C7.66699 12.3292 8.03398 13.1425 8.52586 13.8803C9.02495 14.629 9.50503 15.6352 9.79048 16.4915" stroke="#171717" stroke-width="2" stroke-linecap="round"/>
<path d="M7.47202 11.5385C7.47202 10.0609 8.71958 8.75726 9.52702 7.63926C9.77217 7.29983 10.6959 5.84772 11.2132 5.84772C11.449 5.84772 11.769 6.20145 11.9567 6.3278C12.4887 6.68589 12.8431 7.24385 13.2506 7.73294C13.924 8.541 14.5442 9.43858 15.1885 10.2739C15.7297 10.9754 16.2357 11.7405 16.699 12.4987C16.9388 12.891 17.3403 13.3218 17.4836 13.7516" stroke="#171717" stroke-width="2" stroke-linecap="round"/>
</svg>
