<svg width="39" height="38" viewBox="0 0 39 38" fill="none" xmlns="http://www.w3.org/2000/svg">
<path d="M2.06592 12.9033C2.06592 12.4801 2.24202 12.1777 2.2863 11.8014C2.31106 11.5909 2.52275 10.8722 2.64135 10.724C3.08987 10.1633 3.35809 9.35973 3.82895 8.77115C4.41787 8.035 4.98002 7.23442 5.64707 6.56737C5.96258 6.25186 6.3375 5.99937 6.6449 5.69197C6.87319 5.46368 7.29543 5.10067 7.57539 4.94514C8.03264 4.69111 8.435 4.26441 8.87317 3.97792C9.29019 3.70525 9.76905 3.56671 10.2199 3.34127C10.6675 3.11749 11.0817 2.84927 11.5422 2.63116C12.1142 2.36021 12.7891 2.24088 13.3603 1.93329C15.2786 0.900385 17.3634 1.00281 19.4758 1.00281" stroke="#F7F7F7" stroke-width="2" stroke-linecap="round"/>
<path d="M19.4758 1.00281C20.0268 1.00281 20.5777 1.00281 21.1287 1.00281C21.6872 1.00281 22.1481 1.33338 22.7264 1.33338C24.0858 1.33338 25.3371 2.05352 26.5524 2.52097C27.9554 3.06059 29.3712 3.77126 30.5499 4.68803C31.1553 5.15896 31.8591 5.69537 32.5271 6.12049C32.9874 6.41336 33.5494 6.78152 33.8004 7.2836" stroke="#F7F7F7" stroke-width="2" stroke-linecap="round"/>
<path d="M33.8004 7.2836C34.3714 8.3621 34.8935 9.46144 35.5635 10.5036C36.1641 11.4378 36.3342 12.504 36.7756 13.4971C37.1171 14.2656 37.1565 15.1331 37.4122 15.9641C37.6294 16.6698 37.6571 17.5 37.6571 18.2474C37.6571 19.3351 37.4541 20.324 37.3204 21.394C37.2671 21.8202 37.0455 22.3287 36.9102 22.7346C36.7108 23.3329 36.553 24.0742 36.2246 24.6078C35.705 25.4522 35.6539 26.5362 35.1778 27.3932C34.97 27.7672 34.7941 28.2412 34.6575 28.6358C34.4143 29.3384 34.114 29.4317 33.3597 29.4317" stroke="#F7F7F7" stroke-width="2" stroke-linecap="round"/>
<path d="M33.3597 29.4317C33.3597 30.1181 32.3872 30.928 31.9272 31.4151C31.4651 31.9044 30.961 32.3203 30.4397 32.7374C29.8793 33.1856 29.2557 33.5711 28.6215 33.8882C27.8586 34.2697 26.8494 34.9595 25.977 35.0513C25.1115 35.1424 24.2982 35.755 23.4181 35.8227C22.525 35.8914 21.62 36.2069 20.7369 36.3675C20.0205 36.4977 19.1576 36.3736 18.429 36.3736C17.9781 36.3736 17.5271 36.3736 17.0761 36.3736C16.5427 36.3736 16.0423 36.1532 15.509 36.1532" stroke="#F7F7F7" stroke-width="2" stroke-linecap="round"/>
<path d="M15.509 36.1532C14.2297 36.1532 13.1351 35.8967 11.983 35.3207C10.8987 34.7786 9.79917 34.0611 8.92214 33.2638C8.4424 32.8277 7.86426 32.4753 7.4101 32.0211C6.84121 31.4522 6.28357 30.7593 5.64707 30.2642C4.71075 29.536 3.76989 28.5509 3.16781 27.4972C2.84531 26.9329 2.4195 26.4219 2.06592 25.8811C1.63466 25.2215 1.55561 24.4901 1.27011 23.812C0.813226 22.7269 1.07421 21.1921 1.07421 20.0105C1.07421 17.8041 0.755289 15.3041 1.73535 13.344" stroke="#F7F7F7" stroke-width="2" stroke-linecap="round"/>
<path d="M9.72885 8.62078C11.2873 8.62078 12.521 9.29772 13.9648 9.82775C16.4695 10.7472 18.9145 11.8562 21.404 12.822C23.2299 13.5303 25.1341 14.3287 26.7831 15.3926C27.2673 15.705 27.7829 16.2752 28.3208 16.4545" stroke="#F7F7F7" stroke-width="2" stroke-linecap="round"/>
<path d="M25.814 7.47184C25.3222 7.61237 24.8322 8.03546 24.3982 8.31324C23.5446 8.85954 22.6591 9.35684 21.7521 9.81034C19.9542 10.7093 18.401 11.8793 16.7502 13.0076C15.7598 13.6846 14.8385 14.433 13.843 15.0966C13.1843 15.5358 12.484 15.8928 11.9223 16.4545" stroke="#F7F7F7" stroke-width="2" stroke-linecap="round"/>
<path d="M19.6515 14.9922C19.1464 14.9922 18.7629 15.3503 18.3749 15.6189C17.9628 15.9042 17.7675 15.7838 17.8817 16.2978C18.043 17.0238 18.8727 17.692 19.5471 17.9168" stroke="#F7F7F7" stroke-width="2" stroke-linecap="round"/>
<path d="M9.69638 28.3723C9.69638 27.0105 12.9252 25.4446 14.0313 24.859C15.6558 23.999 17.06 23.7824 19.0037 23.7824C21.2524 23.7824 22.7577 23.8107 24.3727 25.4257C24.7963 25.8493 25.6504 26.6633 25.7752 27.2248C25.9076 27.8206 26.7501 29.1218 27.291 29.3923" stroke="#F7F7F7" stroke-width="2" stroke-linecap="round"/>
</svg>
