<svg width="39" height="38" viewBox="0 0 39 38" fill="none" xmlns="http://www.w3.org/2000/svg">
<path d="M6.67981 5.53059C7.50511 5.53059 7.97255 4.76692 8.69929 4.42268C9.25073 4.16147 10.0674 3.69428 10.4663 3.19556C10.8091 2.76713 11.6432 2.77504 12.1072 2.52941C12.7416 2.19351 13.4694 2.02334 14.1897 1.86327C14.8481 1.71696 15.4708 1.46889 16.1461 1.37242C16.8843 1.26697 17.7357 1.3515 18.4461 1.14102C19.3974 0.859158 20.9257 1.0583 21.882 1.23218C22.343 1.316 22.8624 1.26486 23.3125 1.39346C23.8114 1.53602 24.4937 1.70586 25.0094 1.74406C25.7569 1.79943 27.0593 2.37099 27.6319 2.88002C28.2233 3.40568 29.0184 3.63543 29.5883 4.2053C30.0378 4.65482 30.8231 5.12151 31.138 5.6568C31.4548 6.19552 32.1693 6.37446 32.5544 6.85587C32.9829 7.39145 33.8115 7.79561 34.069 8.50371C34.2871 9.10336 34.833 10.0623 35.233 10.5512C35.6115 11.0139 35.8215 11.7606 36.1586 12.2902C36.4035 12.6751 36.6713 13.2762 36.7196 13.7347C36.7622 14.1401 37.1981 14.3658 36.5934 14.3658" stroke="#F7F7F7" stroke-width="2" stroke-linecap="round"/>
<path d="M36.8458 13.9872C36.8458 15.5749 37.2647 16.9839 37.3506 18.531C37.3946 19.3223 37.6526 20.2958 37.4698 21.1184C37.3088 21.8431 37.1712 22.7844 36.8738 23.4535C36.5316 24.2234 36.3232 25.0252 35.8991 25.7885C35.4639 26.5719 35.0748 27.318 34.672 28.1235C34.3717 28.7241 33.9054 29.8447 33.3748 30.2692C33.1314 30.4639 32.836 30.9509 32.6806 31.2229C32.4418 31.6407 31.8683 31.8938 31.6708 32.2887" stroke="#F7F7F7" stroke-width="2" stroke-linecap="round"/>
<path d="M31.6708 32.2887C31.2312 32.2887 30.801 32.7238 30.5068 33.018C30.1395 33.3853 29.601 33.5823 29.2727 33.9926C28.658 34.761 27.6125 35.1583 26.7484 35.5423C25.9318 35.9052 24.6678 36.4539 23.7823 36.4539C22.7206 36.4539 21.6751 36.9587 20.5637 36.9587C19.4278 36.9587 18.2918 36.9587 17.1558 36.9587C16.4279 36.9587 15.714 36.8139 15.0101 36.7133C14.3872 36.6243 13.6899 36.737 13.0888 36.552C11.9781 36.2103 10.9521 36.2189 9.89833 35.6335C9.3883 35.3501 8.84165 35.1428 8.32061 34.9112C7.78282 34.6722 7.38579 34.1592 6.86911 33.9295C6.54995 33.7877 6.09683 33.2967 5.92949 32.9899C5.7467 32.6548 5.31979 32.5735 5.16518 32.2256C4.86921 31.5597 4.21811 30.9555 3.87495 30.2692C3.58333 29.686 3.0726 28.6332 3.01948 27.9693C2.99429 27.6543 2.78004 27.3534 2.76704 27.0156C2.75299 26.6501 2.70936 26.1308 2.57772 25.7885C1.4251 22.7917 1 19.7777 1 16.5396C1 15.1803 1.08634 14.0719 1.37164 12.7881C1.68327 11.3858 2.23865 10.2955 3.02649 9.11376C3.4038 8.5478 3.81492 8.01492 4.22556 7.48696C4.3751 7.2947 4.66754 7.1833 4.78652 6.97508C4.9055 6.76687 5.26094 6.36734 5.44566 6.18973C5.69202 5.95284 6.29551 5.46873 6.61668 5.39736C6.83348 5.34918 7.09612 5.11426 7.24777 4.96261C7.67429 4.53609 8.33187 4.24235 8.82548 3.88976" stroke="#F7F7F7" stroke-width="2" stroke-linecap="round"/>
<path d="M8.47683 17.3302C8.47683 16.1958 8.36024 15.1795 8.75385 14.1167C9.11211 13.1494 10.4241 12.0797 11.4687 11.9698C12.5432 11.8567 13.4689 11.6414 14.0866 12.8424C14.42 13.4906 14.8684 14.1233 15.0562 14.837C15.2678 15.6412 15.4 16.4375 15.7072 17.2056" stroke="#F7F7F7" stroke-width="2" stroke-linecap="round"/>
<path d="M21.8156 17.2056C21.8156 16.3953 21.8156 15.585 21.8156 14.7747C21.8156 14.1234 22.3067 13.5331 22.6328 12.974C23.295 11.8388 24.9268 11.7205 26.0818 11.7205C27.4067 11.7205 28.4715 12.5459 28.7967 13.8466C29.1596 15.2986 29.794 16.837 29.794 18.3275" stroke="#F7F7F7" stroke-width="2" stroke-linecap="round"/>
<path d="M18.8237 19.0755C18.8237 20.0882 17.6629 20.7759 17.0785 21.5064C16.8934 21.7377 16.7714 21.528 17.0785 21.8181C17.3372 22.0624 17.6397 22.2546 17.8888 22.5037C18.258 22.8729 18.7794 23.0351 19.1977 23.314" stroke="#F7F7F7" stroke-width="2" stroke-linecap="round"/>
<path d="M11.718 25.1839C11.718 26.007 13.0634 26.6622 13.5602 27.2478C13.815 27.548 14.5381 28.0216 14.9315 28.1481C15.7674 28.4168 16.6004 28.5431 17.4525 28.7368C19.0152 29.0919 20.6554 29.0484 22.2519 29.0484C23.6801 29.0484 25.3546 27.2062 25.9294 26.0565" stroke="#F7F7F7" stroke-width="2" stroke-linecap="round"/>
</svg>
