<svg width="20" height="15" viewBox="0 0 20 15" fill="none" xmlns="http://www.w3.org/2000/svg">
<path d="M1.02251 1.61789C1.02251 4.3615 1.02251 7.10512 1.02251 9.84874C1.02251 10.647 0.923072 11.5301 1.14219 12.2696C1.2486 12.6287 1.11555 13.1435 1.61004 13.1726C1.96357 13.1934 2.38298 13.2706 2.7851 13.2706C4.57255 13.2706 6.45415 13.6885 8.27415 13.461C9.13207 13.3537 10.0569 12.9768 10.9126 12.9768C11.1759 12.9768 11.7451 12.9659 11.9897 12.8571C12.4183 12.6667 13.0332 12.7737 13.5021 12.6885C13.9901 12.5997 14.1712 12.8657 14.2909 12.2913C14.4324 11.6118 14.3398 10.8206 14.3398 10.1262C14.3398 8.64655 14.2219 7.04525 13.9699 5.58915C13.8442 4.86258 13.7523 4.1186 13.7523 3.38047C13.7523 2.97392 13.5565 2.50816 13.5565 2.05309C13.5565 1.12734 12.7109 1.03036 11.8918 1.03036C11.045 1.03036 10.1981 1.03036 9.35129 1.03036C8.1738 1.03036 6.83187 0.892471 5.70099 1.20444C4.89794 1.42597 3.95085 1.08299 3.13326 1.23164C2.61693 1.32552 1.4107 1.33461 1.21835 1.91165" stroke="#171717" stroke-width="2" stroke-linecap="round"/>
<path d="M14.144 6.02437C14.213 5.47238 15.5527 4.55864 15.9555 4.26178C16.5771 3.8038 17.108 3.13735 17.7671 2.7712C17.9833 2.65107 18.1217 2.40487 18.3546 2.28159C18.7625 2.06565 18.718 3.03151 18.7409 3.28257C18.8613 4.60707 18.8084 6.11796 18.5722 7.41704C18.458 8.04523 18.5651 8.73225 18.4308 9.35371C18.3317 9.81191 18.2567 10.353 18.2567 10.8225C18.2567 11.0812 18.3074 11.4022 18.2512 11.6549C18.1376 12.1665 17.8601 11.7402 17.6474 11.4645C16.7349 10.2816 15.3995 9.10539 14.9274 7.68904" stroke="#171717" stroke-width="2" stroke-linecap="round"/>
<path d="M15.8087 5.73058C15.8087 6.24558 15.8087 6.76057 15.8087 7.27557C15.8087 7.38528 15.8087 8.09272 15.8087 7.66725C15.8087 7.145 15.8087 6.62276 15.8087 6.10051C15.8087 5.8686 15.8558 5.36689 16.2003 5.73058C16.6158 6.16911 16.65 6.78152 16.8858 7.29733C17.1588 7.89443 17.0816 7.62451 17.0816 7.07972C17.0816 6.43417 17.0816 5.78861 17.0816 5.14305C17.0816 4.79532 17.1796 6.12499 17.1796 6.32899C17.1796 7.30095 17.1796 8.27292 17.1796 9.24488C17.1796 9.98923 17.1091 9.45223 17.0871 8.94567C17.0557 8.22427 17.0816 7.49745 17.0816 6.77508C17.0816 6.2734 17.1396 7.77693 17.185 8.27654C17.2873 9.40185 17.4043 7.30929 17.4298 7.0906C17.4961 6.52252 17.6692 5.84785 17.6692 5.28993C17.6692 4.81216 17.865 3.3923 17.865 3.87007" stroke="#171717" stroke-width="2" stroke-linecap="round"/>
<path d="M5.33107 6.90564C3.66608 6.90564 8.66008 7.00356 10.3251 7.00356" stroke="#171717" stroke-width="2" stroke-linecap="round"/>
<path d="M7.38742 4.9472C7.38742 5.86114 7.38742 6.77507 7.38742 7.68901C7.38742 8.26528 7.30439 8.90875 7.48534 9.4516" stroke="#171717" stroke-width="2" stroke-linecap="round"/>
</svg>
