<svg width="15" height="21" viewBox="0 0 15 21" fill="none" xmlns="http://www.w3.org/2000/svg">
<path d="M5.21063 6.87546C5.21063 5.78998 5.30855 4.68244 5.30855 3.62228C5.30855 2.99777 5.54794 2.59134 5.79816 2.02834C6.0305 1.50557 6.50121 1.38403 6.97322 1.17424C7.39215 0.988053 7.8349 1.00016 8.29516 1.00016C8.872 1.00016 8.98211 1.12945 9.42126 1.41361C9.77807 1.64448 10.1246 2.60284 10.1992 3.01299C10.3029 3.58315 10.3026 4.1507 10.3026 4.74294C10.3026 6.02371 10.3087 7.24173 9.93263 8.46396C9.77008 8.99225 9.71548 9.51177 9.36686 9.95999C9.04415 10.3749 8.74851 10.5676 8.36588 10.912C8.13145 11.123 7.33465 10.9882 7.02218 10.9882C6.64997 10.9882 6.10744 10.644 5.91784 10.3027C5.57004 9.67667 5.05849 8.13185 5.5044 7.46299" stroke="#171717" stroke-width="2" stroke-linecap="round"/>
<path d="M13.534 9.71515C13.534 10.6425 13.3904 11.1629 12.9247 11.9673C12.5807 12.5614 11.9545 13.2665 11.4287 13.6755C10.2167 14.6182 8.86495 15.1988 7.31594 15.1988C6.51752 15.1988 5.86984 15.392 5.06919 15.1008C4.27776 14.813 3.48606 14.5184 2.86051 13.9258C1.82359 12.9434 1 11.5388 1 10.1068" stroke="#171717" stroke-width="2" stroke-linecap="round"/>
<path d="M7.65868 15.6884C7.41531 15.7188 7.56076 19.3299 7.56076 19.8011" stroke="#171717" stroke-width="2" stroke-linecap="round"/>
</svg>
